<svg width="42" height="42" viewBox="0 0 42 42" fill="none" xmlns="http://www.w3.org/2000/svg">
<path d="M30.0003 2.05508C27.268 0.751556 24.2239 0 21.0003 0C16.9386 0 13.1555 1.17838 9.93848 3.18311L30.0003 14.4679V2.05508Z" fill="white"/>
<path d="M31.5 2.84131V25.0617L41.9092 19.2065C41.3134 12.2108 37.277 6.19507 31.5 2.84131Z" fill="white"/>
<path d="M41.9937 20.8792L22.6123 31.7811L33.446 37.8751C38.6225 34.0468 41.9998 27.918 41.9998 20.9999C41.9998 20.9592 41.9939 20.9199 41.9937 20.8792Z" fill="white"/>
<path d="M12 39.945C14.7323 41.2485 17.7764 42.0001 21 42.0001C25.0618 42.0001 28.845 40.8217 32.062 38.8169L12 27.532V39.945Z" fill="white"/>
<path d="M8.55386 4.12476C3.37729 7.95303 0 14.0818 0 21C0 21.0408 0.00585938 21.08 0.00613403 21.1208L19.3876 10.2187L8.55386 4.12476Z" fill="white"/>
<path d="M10.5 39.1586V16.9382L0.0908203 22.7934C0.686554 29.7891 4.72302 35.8049 10.5 39.1586Z" fill="white"/>
</svg>
