<svg width="38" height="27" viewBox="0 0 38 27" fill="none" xmlns="http://www.w3.org/2000/svg">
<path d="M34.3764 0H3.3125C1.48231 0 0 1.49151 0 3.3125V23.1875C0 25.0193 1.4932 26.5 3.3125 26.5H34.3764C36.1913 26.5 37.6889 25.0256 37.6889 23.1875V3.3125C37.6889 1.49475 36.2125 0 34.3764 0ZM33.9125 2.20833C33.2357 2.88151 21.5889 14.467 21.1868 14.867C20.5611 15.4927 19.7292 15.8372 18.8444 15.8372C17.9596 15.8372 17.1278 15.4926 16.5001 14.865C16.2296 14.5959 4.71133 3.13834 3.7764 2.20833H33.9125ZM2.20833 22.738V3.76337L11.7511 13.2559L2.20833 22.738ZM3.7778 24.2917L13.3168 14.8133L14.9406 16.4285C15.9834 17.4713 17.3698 18.0455 18.8444 18.0455C20.3191 18.0455 21.7055 17.4713 22.7462 16.4306L24.3721 14.8133L33.9111 24.2917H3.7778ZM35.4806 22.738L25.9378 13.2559L35.4806 3.76337V22.738Z" fill="white"/>
</svg>
