<svg width="41" height="41" viewBox="0 0 41 41" fill="none" xmlns="http://www.w3.org/2000/svg">
<path d="M17.0835 6.8335H23.9168V8.20016H17.0835V6.8335Z" fill="white"/>
<path d="M17.0835 9.56641H23.9168V10.9331H17.0835V9.56641Z" fill="white"/>
<path d="M37.5832 35.5333V30.0667C37.5832 29.7633 37.383 29.4961 37.0912 29.4107L21.1832 24.7708V16.4H25.9665C26.3444 16.4 26.6498 16.0939 26.6498 15.7167V4.78333C26.6498 4.60225 26.5781 4.428 26.4496 4.30022L22.3496 0.200217C22.2218 0.07175 22.0483 0 21.8665 0H15.0332C14.6553 0 14.3498 0.306133 14.3498 0.683333V15.7167C14.3498 16.0939 14.6553 16.4 15.0332 16.4H19.8165V24.7708L3.9085 29.4107C3.61672 29.4961 3.4165 29.7633 3.4165 30.0667V35.5333C3.4165 35.8367 3.61672 36.1039 3.9085 36.1893L20.3085 40.9727C20.3714 40.9911 20.4349 41 20.4998 41C20.5648 41 20.6283 40.9911 20.6912 40.9727L37.0912 36.1893C37.383 36.1039 37.5832 35.8367 37.5832 35.5333ZM22.5498 2.3329L24.3169 4.1H22.5498V2.3329ZM15.7165 1.36667H21.1832V4.78333C21.1832 5.16053 21.4886 5.46667 21.8665 5.46667H25.2832V15.0333H15.7165V1.36667ZM19.8165 26.1942V29.7838L18.2496 28.2169L17.2834 29.1831L20.0167 31.9165C20.15 32.0497 20.3249 32.1167 20.4998 32.1167C20.6748 32.1167 20.8497 32.0497 20.983 31.9165L23.7163 29.1831L22.7501 28.2169L21.1832 29.7838V26.1942L34.4597 30.0667L20.4998 34.138L6.54002 30.0667L19.8165 26.1942ZM4.78317 30.9776L19.8165 35.3625V39.4058L4.78317 35.0208V30.9776ZM21.1832 39.4058V35.3625L36.2165 30.9776V35.0208L21.1832 39.4058Z" fill="white"/>
<path d="M17.0835 4.1001H19.8168V5.46676H17.0835V4.1001Z" fill="white"/>
<path d="M0.683333 16.4H5.46667C5.46667 18.284 6.99938 19.8167 8.88333 19.8167H10.9333C12.0636 19.8167 12.9833 20.7364 12.9833 21.8667V22.9504L11.4165 21.3836L10.4502 22.3498L13.1835 25.0831C13.3168 25.2164 13.4917 25.2833 13.6667 25.2833C13.8416 25.2833 14.0165 25.2164 14.1498 25.0831L16.8831 22.3498L15.9169 21.3836L14.35 22.9504V21.8667C14.35 19.9827 12.8173 18.45 10.9333 18.45H8.88333C7.7531 18.45 6.83333 17.5302 6.83333 16.4H11.6167C11.9945 16.4 12.3 16.0939 12.3 15.7167V4.78333C12.3 4.60225 12.2283 4.428 12.0998 4.30022L7.99978 0.200217C7.872 0.07175 7.69843 0 7.51667 0H0.683333C0.30545 0 0 0.306133 0 0.683333V15.7167C0 16.0939 0.30545 16.4 0.683333 16.4ZM8.2 2.3329L9.9671 4.1H8.2V2.3329ZM1.36667 1.36667H6.83333V4.78333C6.83333 5.16053 7.13878 5.46667 7.51667 5.46667H10.9333V15.0333H1.36667V1.36667Z" fill="white"/>
<path d="M2.7334 6.8335H9.56673V8.20016H2.7334V6.8335Z" fill="white"/>
<path d="M2.7334 9.56641H9.56673V10.9331H2.7334V9.56641Z" fill="white"/>
<path d="M2.7334 12.2998H9.56673V13.6665H2.7334V12.2998Z" fill="white"/>
<path d="M2.7334 4.1001H5.46673V5.46676H2.7334V4.1001Z" fill="white"/>
<path d="M40.9998 15.7167V4.78333C40.9998 4.60225 40.9281 4.428 40.7996 4.30022L36.6996 0.200217C36.5718 0.07175 36.3982 0 36.2165 0H29.3831C29.0053 0 28.6998 0.306133 28.6998 0.683333V15.7167C28.6998 16.0939 29.0053 16.4 29.3831 16.4H34.1665C34.1665 17.5302 33.2467 18.45 32.1165 18.45H30.0665C28.1825 18.45 26.6498 19.9827 26.6498 21.8667V22.9504L25.0829 21.3836L24.1167 22.3498L26.85 25.0831C26.9833 25.2164 27.1582 25.2833 27.3331 25.2833C27.5081 25.2833 27.683 25.2164 27.8163 25.0831L30.5496 22.3498L29.5834 21.3836L28.0165 22.9504V21.8667C28.0165 20.7364 28.9362 19.8167 30.0665 19.8167H32.1165C34.0004 19.8167 35.5331 18.284 35.5331 16.4H40.3165C40.6944 16.4 40.9998 16.0939 40.9998 15.7167ZM36.8998 2.3329L38.6669 4.1H36.8998V2.3329ZM30.0665 15.0333V1.36667H35.5331V4.78333C35.5331 5.16053 35.8386 5.46667 36.2165 5.46667H39.6332V15.0333H30.0665Z" fill="white"/>
<path d="M31.4331 6.8335H38.2664V8.20016H31.4331V6.8335Z" fill="white"/>
<path d="M31.4331 9.56641H38.2664V10.9331H31.4331V9.56641Z" fill="white"/>
<path d="M31.4331 12.2998H38.2664V13.6665H31.4331V12.2998Z" fill="white"/>
<path d="M31.4331 4.1001H34.1664V5.46676H31.4331V4.1001Z" fill="white"/>
<path d="M17.0835 12.2998H18.4502V13.6665H17.0835V12.2998Z" fill="white"/>
<path d="M19.8169 12.2998H21.1836V13.6665H19.8169V12.2998Z" fill="white"/>
<path d="M22.5498 12.2998H23.9165V13.6665H22.5498V12.2998Z" fill="white"/>
</svg>
