<svg width="89" height="89" viewBox="0 0 89 89" fill="none" xmlns="http://www.w3.org/2000/svg">
<path d="M63.7749 16.765H70.462C71.1826 16.765 71.7664 16.1812 71.7664 15.4606C71.7664 14.7401 71.1826 14.1562 70.462 14.1562H63.7749C63.0544 14.1562 62.4705 14.7401 62.4705 15.4606C62.4705 16.1812 63.0544 16.765 63.7749 16.765Z" fill="#1D69E7"/>
<path d="M82.5188 14.1562H76.0204C75.2999 14.1562 74.716 14.7401 74.716 15.4606C74.716 16.1812 75.2999 16.765 76.0204 16.765H82.5188C84.5439 16.765 86.1915 18.4125 86.1915 20.4376V66.5664H16.0447C15.3242 66.5664 14.7404 67.1502 14.7404 67.8708C14.7404 68.5913 15.3242 69.1751 16.0447 69.1751H86.1916V70.5804C86.1916 72.6055 84.5439 74.253 82.519 74.253H6.28137C4.25628 74.253 2.60876 72.6053 2.60876 70.5804V69.1751H10.486C11.2065 69.1751 11.7904 68.5913 11.7904 67.8708C11.7904 67.1502 11.2065 66.5664 10.486 66.5664H2.60876V20.4378C2.60876 18.4125 4.25645 16.7652 6.28137 16.7652H25.0258C25.7464 16.7652 26.3302 16.1813 26.3302 15.4608C26.3302 14.7403 25.7464 14.1564 25.0258 14.1564H6.28137C2.81781 14.1564 0 16.9742 0 20.4378V70.5804C0 74.0439 2.81781 76.8617 6.28137 76.8617H27.8781V81.9546L24.5957 86.3559H23.0207C22.3002 86.3559 21.7163 86.9397 21.7163 87.6603C21.7163 88.3808 22.3002 88.9646 23.0207 88.9646H66.1435C66.864 88.9646 67.4479 88.3808 67.4479 87.6603C67.4479 86.9397 66.864 86.3559 66.1435 86.3559H64.3788L61.0964 81.9546V76.8617H82.5192C85.9827 76.8617 88.8006 74.0439 88.8006 70.5804V20.4378C88.8002 16.9742 85.9824 14.1562 82.5188 14.1562ZM58.7463 83.1671L61.1244 86.3559H27.8497L30.2279 83.1671C30.396 82.9419 30.4866 82.6685 30.4866 82.3875V76.8619H58.4873V82.3875C58.4875 82.6685 58.5781 82.9419 58.7463 83.1671Z" fill="#1D69E7"/>
<path d="M44.4002 30.9221C52.9256 30.9221 59.8612 23.9863 59.8612 15.4611C59.8612 6.93582 52.9254 0 44.4002 0C35.8749 0 28.9391 6.93582 28.9391 15.4609C28.9389 23.9863 35.8747 30.9221 44.4002 30.9221ZM44.4002 2.60876C51.4869 2.60876 57.2525 8.37411 57.2525 15.4609C57.2525 22.5477 51.4869 28.3132 44.4002 28.3132C37.3134 28.3132 31.5478 22.5477 31.5478 15.4609C31.5478 8.37411 37.3134 2.60876 44.4002 2.60876Z" fill="#1D69E7"/>
<path d="M41.7938 21.9293C42.043 22.1557 42.3571 22.2684 42.671 22.2684C42.9982 22.2684 43.325 22.146 43.5773 21.9025L52.8527 12.9468C53.3708 12.4464 53.3854 11.6207 52.885 11.1024C52.3845 10.5843 51.5591 10.5697 51.0406 11.0701L42.6446 19.1769L40.0306 16.8005C39.4979 16.3163 38.6727 16.3549 38.188 16.8883C37.7035 17.4212 37.7426 18.2464 38.2758 18.7309L41.7938 21.9293Z" fill="#1D69E7"/>
<path d="M20.324 38.9764H57.0205C57.7411 38.9764 58.3249 38.3926 58.3249 37.6721C58.3249 36.9515 57.7411 36.3677 57.0205 36.3677H20.324C18.4508 36.3677 16.9271 37.8917 16.9271 39.7648V47.4725C16.9271 49.3457 18.4509 50.8696 20.324 50.8696H41.7546C42.4752 50.8696 43.059 50.2857 43.059 49.5652C43.059 48.8447 42.4752 48.2608 41.7546 48.2608H20.324C19.8894 48.2608 19.5358 47.9073 19.5358 47.4725V39.7648C19.5358 39.3302 19.8894 38.9764 20.324 38.9764Z" fill="#1D69E7"/>
<path d="M62.5795 38.9764H68.4754C68.9101 38.9764 69.2636 39.33 69.2636 39.7648V47.4725C69.2636 47.9073 68.9101 48.2608 68.4754 48.2608H63.4915C62.7709 48.2608 62.1871 48.8447 62.1871 49.5652C62.1871 50.2857 62.7709 50.8696 63.4915 50.8696H68.4754C70.3487 50.8696 71.8724 49.3456 71.8724 47.4725V39.7648C71.8724 37.8915 70.3485 36.3677 68.4754 36.3677H62.5795C61.8589 36.3677 61.2751 36.9515 61.2751 37.6721C61.2751 38.3926 61.8589 38.9764 62.5795 38.9764Z" fill="#1D69E7"/>
<path d="M59.7862 50.9064C59.6676 50.1047 59.1142 49.4535 58.3418 49.2074L48.5097 46.0754C47.8855 45.8761 47.2177 45.9755 46.678 46.3465C46.138 46.7175 45.8064 47.3055 45.7681 47.9594L45.1667 58.2607C45.1196 59.0698 45.5286 59.8199 46.2346 60.218C46.9407 60.6161 47.7941 60.5781 48.4621 60.1195L50.4086 58.7821L52.7992 62.2615C53.1112 62.7156 53.5813 63.021 54.1233 63.1213C54.25 63.145 54.3772 63.1565 54.5036 63.1565C54.9167 63.1565 55.3196 63.0321 55.6671 62.7933L58.8086 60.635C59.7455 59.9908 59.9841 58.7044 59.3403 57.7673L56.9492 54.2876L58.8955 52.9503C59.5634 52.4913 59.9048 51.708 59.7862 50.9064ZM54.6398 60.334L51.8197 56.2297C51.6237 55.9445 51.3227 55.7488 50.9825 55.6859C50.9035 55.6711 50.8241 55.6639 50.7447 55.6639C50.4828 55.6639 50.2249 55.7429 50.0061 55.8932L47.8308 57.388L48.3346 48.7575L56.5717 51.3816L54.3965 52.8762C54.1113 53.0722 53.9156 53.3733 53.8526 53.7135C53.7895 54.0535 53.8641 54.405 54.06 54.6898L56.8804 58.7944L54.6398 60.334Z" fill="#1D69E7"/>
</svg>
