<svg width="46" height="46" viewBox="0 0 46 46" fill="none" xmlns="http://www.w3.org/2000/svg">
<path d="M23.6326 11.2815C22.5101 7.74525 24.4745 3.95379 28.0122 2.83084C31.5485 1.70835 35.3397 3.67203 36.4624 7.20901C36.7856 8.22705 36.2225 9.31379 35.2045 9.63694C34.1864 9.96009 33.0997 9.39703 32.7765 8.37899C32.2989 6.87441 30.6868 6.03913 29.1822 6.51672C27.6769 6.99454 26.8409 8.60693 27.3185 10.1115C27.6416 11.1295 27.0786 12.2163 26.0605 12.5394C25.0425 12.8626 23.9555 12.2988 23.6326 11.2815ZM3.1895 17.7487C2.06702 14.2124 4.03144 10.421 7.56915 9.29803C11.1054 8.17554 14.8966 10.1392 16.0193 13.6762C16.3425 14.6942 15.7794 15.781 14.7614 16.1041C13.7433 16.4273 12.6566 15.8642 12.3334 14.8462C11.8559 13.3416 10.2437 12.5063 8.73913 12.9839C7.23382 13.4617 6.3978 15.0741 6.87539 16.5787C7.19854 17.5967 6.63548 18.6835 5.61744 19.0066C4.5994 19.3298 3.51265 18.7667 3.1895 17.7487ZM7.60204 34.4848C6.77518 33.5058 6.89873 32.0416 7.87876 31.2153C8.11944 31.0123 8.38962 30.8665 8.6727 30.7766C9.53962 30.5015 10.5252 30.7534 11.1485 31.4927C14.76 35.771 20.8409 37.3454 26.641 35.5043C32.3099 33.7049 36.3396 28.9195 36.9068 23.3108C37.036 22.0356 38.1736 21.1048 39.4478 21.2359C40.723 21.3651 41.652 22.5024 41.5229 23.7776C40.7707 31.227 35.4797 37.5658 28.0445 39.9259C20.4511 42.337 12.427 40.2012 7.60204 34.4848Z" fill="white"/>
</svg>
