<svg width="90" height="89" viewBox="0 0 90 89" fill="none" xmlns="http://www.w3.org/2000/svg">
<path d="M88.6678 58.698C88.0315 56.8192 86.5117 55.4551 84.3883 54.8564C82.1037 54.2119 79.1321 54.4172 75.5561 55.4664L59.2779 60.2419C59.2095 60.1029 59.1362 59.965 59.0578 59.8294C58.1487 58.2549 56.6865 57.1302 54.9404 56.6623L43.3758 53.5635C34.9365 47.6501 30.4138 49.3485 23.7628 52.6008C20.5817 54.1561 17.4204 55.6608 14.4313 57.0734L13.8045 55.5684C12.9729 53.5715 10.6712 52.6218 8.67282 53.4509L2.42609 56.0451C1.45214 56.4492 0.696005 57.2048 0.296948 58.1721C-0.102289 59.1395 -0.0988658 60.2084 0.306677 61.1818L10.8848 86.5828C11.5123 88.0895 12.9765 89.0002 14.516 89C15.0168 89 15.526 88.9036 16.0164 88.6999L22.2633 86.1059C23.2371 85.7014 23.9932 84.946 24.3923 83.9785C24.7913 83.0113 24.7879 81.9424 24.3825 80.9689L23.6739 79.2675L27.7454 77.2877C29.2325 76.5647 30.7273 76.4374 32.3156 76.8986L45.3093 80.6713C46.266 80.9491 47.2545 81.0679 48.2577 81.0679C51.7112 81.0677 55.3326 79.6586 58.3766 78.4739C58.6449 78.3696 83.5514 68.7708 83.5514 68.7708C87.4997 67.2493 89.9381 62.4484 88.6678 58.698ZM22.0608 83.0167C21.9188 83.3608 21.6473 83.6305 21.296 83.7764L15.0491 86.3704C14.334 86.6667 13.5107 86.3275 13.2132 85.613L2.63508 60.212C2.48879 59.8611 2.48663 59.4782 2.6286 59.1341C2.77056 58.7902 3.04206 58.5205 3.39338 58.3746L9.64011 55.7804C9.81559 55.7076 9.99755 55.6731 10.1768 55.6731C10.7276 55.6731 11.2517 55.999 11.4761 56.538L22.0543 81.9388C22.2004 82.2897 22.2028 82.6726 22.0608 83.0167ZM82.6447 66.417C82.6447 66.417 57.7329 76.0179 57.4621 76.1233C53.8888 77.5142 49.4417 79.2446 46.0127 78.2491L33.0191 74.4763C30.8341 73.8419 28.6887 74.0246 26.6426 75.0197L22.7027 76.9353L15.4018 59.4044C18.4307 57.9732 21.6383 56.447 24.8704 54.8665C31.0867 51.827 34.6764 50.4859 42.1028 55.7523C42.225 55.8388 42.3614 55.9031 42.506 55.9419L54.2875 59.0986C55.3829 59.3921 56.3011 60.0994 56.8733 61.0905C57.4455 62.0816 57.599 63.2306 57.3054 64.3258C57.0119 65.421 56.3046 66.3395 55.3133 66.9117C54.3223 67.4839 53.1732 67.6374 52.078 67.3437L36.4209 63.1485C35.7487 62.969 35.0567 63.3674 34.8764 64.0403C34.6962 64.713 35.0954 65.4045 35.7682 65.5848L51.4253 69.78C53.1712 70.2476 55 70.0049 56.5746 69.0958C58.1492 68.1869 59.274 66.7245 59.7419 64.9784C59.9462 64.2163 60.015 63.4382 59.9519 62.6725L76.2661 57.8865C81.6565 56.3054 85.3995 56.9111 86.2789 59.5071C87.112 61.9666 85.3118 65.3893 82.6447 66.417ZM74.14 15.0925C78.3014 15.0925 81.6869 11.7071 81.6869 7.54569C81.6868 3.38505 78.3014 0 74.14 0C69.9786 0 66.5932 3.38505 66.5932 7.54587C66.5932 11.7071 69.9786 15.0925 74.14 15.0925ZM74.14 2.52226C76.9105 2.52226 79.1647 4.77589 79.1647 7.54587C79.1647 10.3164 76.9107 12.5704 74.14 12.5704C71.3695 12.5704 69.1155 10.3164 69.1155 7.54587C69.1155 4.77589 71.3695 2.52226 74.14 2.52226ZM26.894 34.5319C29.5814 36.9653 35.0659 37.9432 40.1009 37.9432C41.0197 37.9432 41.9232 37.9099 42.7925 37.8475C43.4348 39.0137 44.7593 40.223 47.3268 41.1681C49.9294 42.1262 53.4047 42.6541 57.1124 42.6541C63.3249 42.6541 69.5835 41.1501 71.4291 37.8474C72.2995 37.9097 73.2037 37.9432 74.124 37.9432C79.1586 37.943 84.6437 36.9651 87.331 34.5319C88.4232 33.5431 89.0004 32.34 89.0004 31.0529C89.0004 22.8589 82.3341 16.1925 74.14 16.1925C69.55 16.1925 65.2503 18.3053 62.4405 21.8908C60.7855 21.2529 58.9902 20.8996 57.1131 20.8996C55.2357 20.8996 53.4404 21.2531 51.785 21.891C48.9752 18.3055 44.6757 16.1925 40.0859 16.1925C31.8915 16.1925 25.2246 22.8589 25.2246 31.0529C25.2244 32.34 25.8018 33.5431 26.894 34.5319ZM74.14 18.7148C80.9432 18.7148 86.4781 24.2497 86.4781 31.0529C86.4781 31.6239 86.2034 32.1503 85.6381 32.6621C83.477 34.6187 77.7461 35.7207 71.9631 35.3566C71.8228 30.1296 68.974 25.5669 64.7684 23.0286C67.1009 20.3058 70.5112 18.7148 74.14 18.7148ZM69.4511 35.7598C69.4511 38.2113 64.0313 40.1318 57.1124 40.1318C50.1935 40.1318 44.7737 38.2115 44.7737 35.7598C44.7737 28.9566 50.309 23.4219 57.1129 23.4219C63.9162 23.4219 69.4511 28.9568 69.4511 35.7598ZM40.0857 18.7148C43.7142 18.7148 47.1245 20.3058 49.457 23.0284C45.251 25.5669 42.4021 30.1294 42.2617 35.3565C36.4785 35.7206 30.7478 34.6185 28.5868 32.662C28.0216 32.1501 27.7467 31.6237 27.7467 31.0528C27.7467 24.2497 33.2821 18.7148 40.0857 18.7148ZM40.0857 15.0925C44.2471 15.0925 47.6327 11.7071 47.6327 7.54569C47.6327 3.38505 44.2471 0 40.0857 0C35.9244 0 32.539 3.38505 32.539 7.54587C32.539 11.7071 35.9245 15.0925 40.0857 15.0925ZM40.0857 2.52226C42.8563 2.52226 45.1104 4.77589 45.1104 7.54587C45.1104 10.3164 42.8564 12.5704 40.0857 12.5704C37.3152 12.5704 35.0612 10.3164 35.0612 7.54587C35.0612 4.77589 37.3152 2.52226 40.0857 2.52226ZM57.1129 19.7994C61.2743 19.7994 64.6597 16.4139 64.6597 12.2526C64.6597 8.09176 61.2743 4.70671 57.1129 4.70671C52.9516 4.70671 49.5662 8.09176 49.5662 12.2526C49.5662 16.4139 52.9516 19.7994 57.1129 19.7994ZM57.1129 7.22915C59.8835 7.22915 62.1375 9.48279 62.1375 12.2528C62.1375 15.0233 59.8835 17.2773 57.1129 17.2773C54.3424 17.2773 52.0884 15.0233 52.0884 12.2528C52.0884 9.48279 54.3424 7.22915 57.1129 7.22915Z" fill="#1D69E7"/>
</svg>
