<svg width="29" height="29" viewBox="0 0 29 29" fill="none" xmlns="http://www.w3.org/2000/svg">
<path d="M25.2943 0H3.70571C1.66235 0 0 1.6624 0 3.70577V25.2943C0 27.3376 1.66235 29 3.70571 29H25.2943C27.3377 29 29 27.3376 29 25.2942V3.70577C29 1.6624 27.3377 0 25.2943 0ZM27.2918 25.2943C27.2918 26.3958 26.3957 27.2918 25.2943 27.2918H3.70571C2.60422 27.2918 1.70811 26.3957 1.70811 25.2943V22.1787L7.32998 17.3953C7.53513 17.2207 7.83442 17.2191 8.0415 17.3911L11.5631 20.3153C11.9026 20.5972 12.4011 20.5741 12.7131 20.2617L21.0806 11.8815C21.2318 11.73 21.4081 11.7153 21.5002 11.72C21.5919 11.7247 21.7661 11.7574 21.9011 11.9236L27.2919 18.5614L27.2918 25.2943ZM27.2918 15.8517L23.227 10.8466C22.8238 10.3502 22.2263 10.0467 21.5877 10.0139C20.9494 9.98166 20.3236 10.2219 19.8718 10.6745L12.0549 18.5034L9.13285 16.077C8.28556 15.3734 7.0619 15.3807 6.22305 16.0944L1.70811 19.9359V3.70577C1.70811 2.60428 2.60422 1.70817 3.70571 1.70817H25.2943C26.3958 1.70817 27.2918 2.60428 27.2918 3.70577V15.8517Z" fill="white"/>
<path d="M9.12925 3.56812C6.85825 3.56812 5.01074 5.41573 5.01074 7.68662C5.01074 9.95757 6.8583 11.8051 9.12925 11.8051C11.4002 11.8051 13.2478 9.95757 13.2478 7.68662C13.2478 5.41568 11.4003 3.56812 9.12925 3.56812ZM9.12925 10.097C7.80012 10.097 6.71885 9.0157 6.71885 7.68662C6.71885 6.3575 7.80012 5.27623 9.12925 5.27623C10.4584 5.27623 11.5397 6.35755 11.5397 7.68662C11.5397 9.0157 10.4584 10.097 9.12925 10.097Z" fill="white"/>
</svg>
