<svg width="87" height="87" viewBox="0 0 87 87" fill="none" xmlns="http://www.w3.org/2000/svg">
<mask id="mask0_3_1490" style="mask-type:luminance" maskUnits="userSpaceOnUse" x="0" y="0" width="87" height="87">
<path d="M0 0H87V87H0V0Z" fill="white"/>
</mask>
<g mask="url(#mask0_3_1490)">
<path d="M50.7247 51.2852C50.8361 49.2092 51.6222 45.5727 55.3122 42.305C66.5464 32.3564 80.6528 25.0703 80.6528 25.0703" stroke="#1D69E7" stroke-width="3" stroke-miterlimit="10" stroke-linecap="round" stroke-linejoin="round"/>
<path d="M50.6899 51.2842C50.5657 49.198 49.7581 45.539 46.1061 42.305C34.8719 32.3562 20.889 25.1055 20.889 25.1055" stroke="#1D69E7" stroke-width="3" stroke-miterlimit="10" stroke-linecap="round" stroke-linejoin="round"/>
<path d="M50.7095 51.2842V1.2743" stroke="#1D69E7" stroke-width="3" stroke-miterlimit="10" stroke-linecap="round" stroke-linejoin="round"/>
<path d="M46.5765 69.5593L60.6987 68.637" stroke="#1D69E7" stroke-width="3" stroke-miterlimit="10" stroke-linecap="round" stroke-linejoin="round"/>
<path d="M46.5765 69.5593L60.6987 68.637" stroke="#1D69E7" stroke-width="3" stroke-miterlimit="10" stroke-linecap="round" stroke-linejoin="round"/>
<path d="M17.5139 71.1292L22.8913 80.4431C23.5482 81.5808 23.1584 83.0355 22.0206 83.6926L19.0519 85.4064C17.9139 86.0635 16.4592 85.6735 15.8025 84.5357L4.97147 65.776C4.31455 64.6384 4.70435 63.1835 5.84215 62.5266L8.81085 60.8126C9.94865 60.1557 11.4035 60.5455 12.0603 61.6833L14.5287 65.9585" stroke="#1D69E7" stroke-width="3" stroke-miterlimit="10" stroke-linecap="round" stroke-linejoin="round"/>
<path d="M22.4186 79.6244L25.4278 76.9552C26.4164 76.0783 27.7946 75.7886 29.0527 76.193L39.3887 79.5151C40.5265 79.9624 41.7462 80.1306 42.9551 80.0065L63.5316 77.8951C64.8135 77.7637 66.0461 77.3075 67.1246 76.5656L81.3284 66.7946C82.4684 65.7275 82.6799 63.9338 81.8221 62.605C80.8835 61.151 79.0072 60.769 77.6225 61.75L68.4551 66.5686C66.0408 67.8377 63.3953 68.5431 60.699 68.6371L60.8174 66.6816C60.5945 64.3199 58.8694 62.4242 56.6399 62.0917L46.3939 60.8482C44.0303 60.4956 42.8492 59.6608 40.7887 58.3901C38.7779 57.15 35.0396 55.6423 33.0145 55.036C29.4594 53.9711 25.6176 54.4719 22.3804 56.287L12.2305 61.9782" stroke="#1D69E7" stroke-width="3" stroke-miterlimit="10" stroke-linecap="round" stroke-linejoin="round"/>
<path d="M75.1016 36.8993C79.0831 32.8481 80.436 27.8474 80.8502 25.736C80.9541 25.2068 80.4457 24.704 79.8195 24.7161C74.9964 24.808 57.1422 26.2016 55.2039 41.7139C55.1451 42.1848 55.5647 42.6293 56.1171 42.6802C62.2003 43.2418 66.8098 42.225 70.2989 40.432" stroke="#1D69E7" stroke-width="3" stroke-miterlimit="10" stroke-linecap="round" stroke-linejoin="round"/>
<path d="M21.7521 24.7162C26.5752 24.8081 44.4294 26.2016 46.3677 41.714C46.4267 42.185 46.007 42.6293 45.4546 42.6805C25.7728 44.4976 21.517 29.7902 20.7216 25.736C20.6176 25.2071 21.126 24.7043 21.7521 24.7162Z" stroke="#1D69E7" stroke-width="3" stroke-miterlimit="10" stroke-linecap="round" stroke-linejoin="round"/>
<path d="M51.2879 1.59522C51.0162 1.16719 50.4051 1.16719 50.1334 1.59522C47.6118 5.56799 38.2336 22.2321 50.6901 33.0151H50.731C63.1877 22.2321 53.8094 5.56799 51.2879 1.59522Z" stroke="#1D69E7" stroke-width="3" stroke-miterlimit="10" stroke-linecap="round" stroke-linejoin="round"/>
<path d="M75.784 62.7163L69.7815 57.9298C59.7114 49.8994 45.6929 49.1469 34.8826 55.6719" stroke="#1D69E7" stroke-width="3" stroke-miterlimit="10" stroke-linecap="round" stroke-linejoin="round"/>
</g>
</svg>
