<svg width="31" height="31" viewBox="0 0 31 31" fill="none" xmlns="http://www.w3.org/2000/svg">
<path d="M13.5156 26.7846V23.4893" stroke="white" stroke-width="0.7" stroke-miterlimit="10" stroke-linecap="round" stroke-linejoin="round"/>
<path d="M17.9854 23.4893V26.7846" stroke="white" stroke-width="0.7" stroke-miterlimit="10" stroke-linecap="round" stroke-linejoin="round"/>
<path d="M21.1137 20.7263V21.5681C21.1137 22.5517 20.3164 23.349 19.3328 23.349H12.1676C11.184 23.349 10.3867 22.5517 10.3867 21.5681V20.7263" stroke="white" stroke-width="0.7" stroke-miterlimit="10" stroke-linecap="round" stroke-linejoin="round"/>
<path d="M17.3318 10.7743C17.954 9.59711 17.1058 8.15161 15.7504 8.15161C14.3971 8.15161 13.5454 9.59461 14.1689 10.7743" stroke="white" stroke-width="0.7" stroke-miterlimit="10" stroke-linecap="round" stroke-linejoin="round"/>
<path d="M6.50832 20.6664H27.8287C29.3038 20.6664 30.5 19.4709 30.5 17.9951V13.5048C30.5 12.0291 29.3038 10.8335 27.8287 10.8335H3.67135C2.19617 10.8335 1 12.0291 1 13.5048V17.9951C1 19.4709 2.19617 20.6664 3.67135 20.6664H4.43061" stroke="white" stroke-width="0.7" stroke-miterlimit="10" stroke-linecap="round" stroke-linejoin="round"/>
<path d="M20.7668 4.02786C20.4495 4.3451 19.9446 4.38078 19.5906 4.10504C17.3346 2.34782 14.1644 2.34806 11.9083 4.10504C11.5544 4.38066 11.0494 4.3451 10.7323 4.0278C10.3541 3.64948 10.3882 3.02284 10.8102 2.69421C13.7107 0.435314 17.7884 0.435255 20.689 2.69409C21.1111 3.02278 21.1451 3.64954 20.7668 4.02786Z" stroke="white" stroke-width="0.7" stroke-miterlimit="10" stroke-linecap="round" stroke-linejoin="round"/>
<path d="M18.1984 6.59656C17.9049 6.89005 17.4568 6.93754 17.1093 6.7328C16.2724 6.23973 15.2275 6.23997 14.3905 6.73304C14.0383 6.94057 13.591 6.88614 13.3019 6.5971C12.8849 6.18007 12.9804 5.48783 13.4851 5.19072C14.8797 4.36972 16.6202 4.36967 18.0147 5.19072C18.5208 5.48866 18.6137 6.18137 18.1984 6.59656Z" stroke="white" stroke-width="0.7" stroke-miterlimit="10" stroke-linecap="round" stroke-linejoin="round"/>
<path d="M18.3283 13.5149H1.18066" stroke="white" stroke-width="0.7" stroke-miterlimit="10" stroke-linecap="round" stroke-linejoin="round"/>
<path d="M30.3199 13.5151H20.4062" stroke="white" stroke-width="0.7" stroke-miterlimit="10" stroke-linecap="round" stroke-linejoin="round"/>
<path d="M26.0311 18.879C27.0185 18.879 27.819 18.0786 27.819 17.0911C27.819 16.1037 27.0185 15.3032 26.0311 15.3032C25.0436 15.3032 24.2432 16.1037 24.2432 17.0911C24.2432 18.0786 25.0436 18.879 26.0311 18.879Z" stroke="white" stroke-width="0.7" stroke-miterlimit="10" stroke-linecap="round" stroke-linejoin="round"/>
<path d="M5.46954 18.8788C6.45698 18.8788 7.25745 18.0783 7.25745 17.0909C7.25745 16.1035 6.45698 15.303 5.46954 15.303C4.48211 15.303 3.68164 16.1035 3.68164 17.0909C3.68164 18.0783 4.48211 18.8788 5.46954 18.8788Z" stroke="white" stroke-width="0.7" stroke-miterlimit="10" stroke-linecap="round" stroke-linejoin="round"/>
<path d="M22.4551 10.9795V13.369" stroke="white" stroke-width="0.7" stroke-miterlimit="10" stroke-linecap="round" stroke-linejoin="round"/>
<path d="M25.1367 10.9795V13.369" stroke="white" stroke-width="0.7" stroke-miterlimit="10" stroke-linecap="round" stroke-linejoin="round"/>
<path d="M27.8184 10.9795V13.369" stroke="white" stroke-width="0.7" stroke-miterlimit="10" stroke-linecap="round" stroke-linejoin="round"/>
<path d="M19.0236 30.5005H21.1167C21.611 30.5005 22.0072 30.0998 22.0072 29.6101C22.0072 28.1272 20.8051 26.925 19.3222 26.925H12.1772C10.6943 26.925 9.49219 28.1272 9.49219 29.6101C9.49219 30.1016 9.89052 30.5005 10.3826 30.5005H16.9458" stroke="white" stroke-width="0.7" stroke-miterlimit="10" stroke-linecap="round" stroke-linejoin="round"/>
<path d="M15.7493 17.8426C16.2878 17.8426 16.7243 17.3582 16.7243 16.7607C16.7243 16.1631 16.2878 15.6787 15.7493 15.6787C15.2109 15.6787 14.7744 16.1631 14.7744 16.7607C14.7744 17.3582 15.2109 17.8426 15.7493 17.8426Z" stroke="white" stroke-width="0.7" stroke-miterlimit="10" stroke-linecap="round" stroke-linejoin="round"/>
<path d="M12.8794 16.1134C12.8794 15.6658 12.5135 15.303 12.0623 15.303C11.611 15.303 11.2451 15.6658 11.2451 16.1134" stroke="white" stroke-width="0.7" stroke-miterlimit="10" stroke-linecap="round" stroke-linejoin="round"/>
<path d="M18.5498 16.1137C18.5498 15.6661 18.9157 15.3032 19.3669 15.3032C19.8182 15.3032 20.1841 15.6661 20.1841 16.1137" stroke="white" stroke-width="0.7" stroke-miterlimit="10" stroke-linecap="round" stroke-linejoin="round"/>
</svg>
