<svg width="36" height="37" viewBox="0 0 36 37" fill="none" xmlns="http://www.w3.org/2000/svg">
<path d="M28.4665 22.3333C27.7285 21.5648 26.8382 21.1539 25.8947 21.1539C24.9587 21.1539 24.0609 21.5572 23.2923 22.3257L20.8879 24.7225C20.69 24.616 20.4922 24.5171 20.302 24.4182C20.028 24.2812 19.7693 24.1519 19.5487 24.0149C17.2964 22.5844 15.2495 20.7202 13.2864 18.3081C12.3352 17.1058 11.6961 16.0938 11.2319 15.0666C11.8559 14.4959 12.4342 13.9024 12.9972 13.3317C13.2103 13.1187 13.4233 12.898 13.6364 12.6849C15.2343 11.087 15.2343 9.01735 13.6364 7.41943L11.5591 5.34215C11.3232 5.10626 11.0797 4.86277 10.8515 4.61928C10.3949 4.14752 9.91554 3.66053 9.42095 3.20399C8.68286 2.47351 7.80021 2.08545 6.8719 2.08545C5.94359 2.08545 5.04571 2.47351 4.2848 3.20399C4.27719 3.2116 4.27719 3.2116 4.26958 3.21921L1.68249 5.82913C0.708521 6.8031 0.153056 7.99012 0.0313103 9.36736C-0.151308 11.5892 0.503075 13.6589 1.00528 15.0133C2.23795 18.3385 4.07935 21.4202 6.82624 24.7225C10.159 28.7021 14.169 31.8447 18.7497 34.0589C20.4998 34.8883 22.8358 35.8699 25.4457 36.0373C25.6055 36.0449 25.7729 36.0525 25.9251 36.0525C27.6828 36.0525 29.159 35.4209 30.3156 34.1654C30.3232 34.1502 30.3384 34.1426 30.346 34.1274C30.7417 33.648 31.1982 33.2143 31.6776 32.7501C32.0048 32.4382 32.3396 32.111 32.6668 31.7686C33.4201 30.9848 33.8157 30.0717 33.8157 29.1358C33.8157 28.1923 33.4125 27.2868 32.6439 26.5259L28.4665 22.3333ZM31.1906 30.3457C31.183 30.3457 31.183 30.3533 31.1906 30.3457C30.8938 30.6653 30.5895 30.9544 30.2623 31.274C29.7677 31.7457 29.2655 32.2403 28.7937 32.7958C28.0252 33.6176 27.1197 34.0057 25.9327 34.0057C25.8186 34.0057 25.6968 34.0057 25.5827 33.998C23.3228 33.8535 21.2227 32.9708 19.6476 32.2175C15.3408 30.1326 11.5591 27.1727 8.41654 23.4214C5.82184 20.294 4.08696 17.4026 2.93799 14.2981C2.23034 12.4034 1.97163 10.9272 2.08577 9.53476C2.16186 8.6445 2.50427 7.90642 3.13583 7.27486L5.73053 4.68015C6.10338 4.33014 6.49905 4.13991 6.88712 4.13991C7.36649 4.13991 7.75455 4.42905 7.99804 4.67255C8.00565 4.68015 8.01326 4.68776 8.02087 4.69537C8.48503 5.12909 8.92636 5.57803 9.39051 6.0574C9.62639 6.30089 9.86988 6.54439 10.1134 6.79549L12.1907 8.87277C12.9972 9.67934 12.9972 10.425 12.1907 11.2316C11.97 11.4523 11.7569 11.6729 11.5363 11.886C10.8971 12.5404 10.2884 13.1491 9.62639 13.7426C9.61117 13.7578 9.59596 13.7654 9.58835 13.7806C8.93396 14.435 9.05571 15.0742 9.19267 15.5079C9.20028 15.5307 9.20789 15.5536 9.2155 15.5764C9.75575 16.8852 10.5167 18.1178 11.6732 19.5864L11.6809 19.594C13.781 22.1811 15.9952 24.1975 18.4377 25.7422C18.7497 25.94 19.0693 26.0998 19.3737 26.252C19.6476 26.3889 19.9063 26.5183 20.127 26.6553C20.1574 26.6705 20.1878 26.6933 20.2183 26.7085C20.477 26.8379 20.7205 26.8987 20.9716 26.8987C21.6031 26.8987 21.9988 26.5031 22.1282 26.3737L24.7305 23.7714C24.9892 23.5127 25.4001 23.2007 25.8794 23.2007C26.3512 23.2007 26.7393 23.4975 26.9752 23.7562C26.9828 23.7638 26.9828 23.7638 26.9904 23.7714L31.183 27.964C31.9667 28.7402 31.9667 29.5391 31.1906 30.3457Z" fill="white"/>
<path d="M19.4571 8.57586C21.4507 8.91066 23.2617 9.85419 24.7074 11.2999C26.1531 12.7457 27.089 14.5566 27.4315 16.5502C27.5152 17.0524 27.9489 17.4024 28.4435 17.4024C28.5043 17.4024 28.5576 17.3948 28.6185 17.3872C29.1816 17.2959 29.5544 16.7633 29.4631 16.2002C29.0522 13.7881 27.9108 11.5891 26.1683 9.84658C24.4259 8.1041 22.2268 6.96273 19.8147 6.55184C19.2517 6.46053 18.7266 6.83338 18.6277 7.38884C18.5288 7.9443 18.894 8.48455 19.4571 8.57586Z" fill="white"/>
<path d="M35.9845 15.9035C35.3073 11.9315 33.4355 8.3172 30.5592 5.44095C27.683 2.56471 24.0687 0.692871 20.0967 0.0156607C19.5413 -0.0832577 19.0162 0.297198 18.9173 0.852662C18.826 1.41574 19.1988 1.94076 19.7619 2.03968C23.3078 2.6408 26.5416 4.32241 29.1135 6.88668C31.6854 9.45856 33.3594 12.6924 33.9605 16.2383C34.0442 16.7405 34.4779 17.0905 34.9725 17.0905C35.0334 17.0905 35.0867 17.0829 35.1475 17.0753C35.703 16.9916 36.0835 16.4589 35.9845 15.9035Z" fill="white"/>
</svg>
