<svg width="36" height="43" viewBox="0 0 36 43" fill="none" xmlns="http://www.w3.org/2000/svg">
<path d="M34.9942 13.3384C35.3325 12.8524 34.6191 12.3359 34.2626 12.8096C34.2457 12.8328 32.7762 14.8109 30.2467 15.3217C31.101 14.3779 31.5842 13.1563 31.6068 11.8834C33.8356 10.4234 34.0118 7.63746 33.6803 7.44089C33.6379 7.3992 33.5874 7.36655 33.532 7.34491C33.4766 7.32327 33.4174 7.3131 33.3579 7.315C31.9868 7.34506 31.0148 7.62934 30.3396 7.96263C30.2814 7.40048 30.1421 6.84973 29.926 6.3275C30.439 5.1469 31.4222 4.31534 32.8569 3.85332C32.9521 4.52957 32.9341 5.21697 32.8034 5.88727C32.7813 6.00359 32.8058 6.12393 32.8716 6.22235C32.9374 6.32077 33.0393 6.3894 33.1552 6.41346C33.2711 6.43751 33.3919 6.41506 33.4914 6.35095C33.5909 6.28684 33.6613 6.18619 33.6873 6.07069C33.8758 5.11143 33.8626 4.12346 33.6486 3.16957C33.6188 3.05408 33.5444 2.9551 33.4418 2.89426C33.3391 2.83343 33.2166 2.81569 33.101 2.84492C31.8915 3.14997 30.9196 3.66358 30.1896 4.37622C30.7979 1.97556 32.0577 0.807607 32.0822 0.785422C32.1702 0.705445 32.223 0.594013 32.2293 0.475313C32.2356 0.356614 32.1948 0.240225 32.1158 0.15141C32.0368 0.062595 31.926 0.00852056 31.8073 0.000923714C31.6887 -0.00667314 31.5719 0.0328207 31.4822 0.110833C31.4005 0.183193 29.688 1.74042 29.1347 4.99612C29.0698 4.90509 28.9735 4.84131 28.8644 4.81706C28.7552 4.79282 28.641 4.80983 28.5437 4.86481C28.4634 4.91022 26.7171 5.93539 26.0891 8.93066C25.7942 8.68082 25.3629 8.20525 24.9927 8.59388C24.9371 8.65502 23.9019 9.81537 23.3933 11.8892C22.4958 7.54782 24.277 3.42496 24.303 3.36563C24.3516 3.25616 24.3547 3.13188 24.3116 3.02014C24.2686 2.9084 24.1829 2.81834 24.0734 2.76978C23.9639 2.72122 23.8396 2.71814 23.7279 2.76121C23.6162 2.80428 23.5261 2.88997 23.4775 2.99944C23.3812 3.21665 21.3106 7.9834 22.7089 12.9014C22.3151 12.7972 21.1921 14.7485 21.0735 17.3865C19.6247 14.3932 20.6941 10.3646 20.7067 10.3181C20.7376 10.2029 20.7216 10.0801 20.6623 9.97666C20.6029 9.87317 20.505 9.79738 20.39 9.76585C20.2749 9.73432 20.1521 9.74962 20.0482 9.80839C19.9444 9.86717 19.8681 9.96465 19.8359 10.0795C19.7792 10.2859 18.6235 14.6248 20.3347 17.9315C20.2514 18.0595 19.0987 20.0678 19.3098 22.9192C18.6662 22.4325 18.4198 23.1752 18.1989 23.6518C18.0458 23.7034 17.8583 23.7742 17.6502 23.8677C17.8134 22.1155 17.4926 20.3521 16.7228 18.7696C18.8123 15.4096 17.2831 10.3082 17.2085 10.0662C17.1719 9.95357 17.0924 9.85982 16.9873 9.80521C16.8822 9.7506 16.7598 9.73951 16.6465 9.77433C16.5333 9.80915 16.4383 9.88709 16.382 9.99133C16.3257 10.0956 16.3126 10.2178 16.3456 10.3316C16.3639 10.3915 18.116 16.2478 15.3198 19.1038C14.6539 19.7081 14.1373 20.4587 13.8107 21.2965C13.4217 20.313 13.0182 19.3628 12.6129 18.4578C12.2947 16.9298 12.8709 15.354 14.0981 14.469C14.4564 15.1628 14.7092 15.9062 14.8482 16.6746C14.8574 16.7344 14.8784 16.7917 14.9101 16.8432C14.9418 16.8947 14.9836 16.9393 15.0329 16.9743C15.0821 17.0094 15.138 17.0342 15.197 17.0472C15.256 17.0603 15.3171 17.0614 15.3766 17.0504C15.436 17.0394 15.4927 17.0165 15.5431 16.9832C15.5936 16.9499 15.6369 16.9068 15.6704 16.8565C15.7039 16.8061 15.7269 16.7496 15.7381 16.6901C15.7493 16.6307 15.7485 16.5697 15.7356 16.5106C15.3992 14.6991 14.6498 13.6225 14.6181 13.5776C14.3859 13.2551 14.0261 13.406 13.766 13.6034C13.4543 10.5808 12.0433 8.95917 11.914 8.82696C13.12 5.86831 11.3828 2.47499 11.2937 2.30447C11.2362 2.20209 11.1411 2.12612 11.0285 2.0927C10.916 2.05927 10.7948 2.07102 10.6908 2.12544C10.5867 2.17986 10.508 2.27267 10.4712 2.38419C10.4345 2.49571 10.4427 2.61716 10.494 2.72277C10.5149 2.76301 12.3697 6.39792 10.7735 9.08544C10.1474 6.03444 8.3843 4.96594 8.30252 4.91808C7.90615 4.68991 7.60394 5.12743 7.3759 5.40062C6.61863 4.11 5.34865 3.21768 3.58608 2.74624C3.47086 2.71543 3.34813 2.73147 3.24469 2.79084C3.14125 2.85022 3.06552 2.94812 3.03402 3.06316C3.00487 3.16931 2.4149 5.39958 3.38512 7.41677C3.37145 7.41535 3.35803 7.41368 3.34423 7.41239C1.71412 6.80977 0.851735 5.38733 0.843093 5.37327C0.53353 4.86855 -0.226705 5.31639 0.065703 5.83246C0.727369 6.86152 1.67718 7.67317 2.79682 8.1663C2.84945 8.94098 3.16855 10.907 5.00607 12.1456C4.80111 15.9109 7.70636 17.0599 9.54155 17.5243C10.3928 17.7038 11.1046 18.0096 11.6023 18.4086C12.0731 19.4423 12.5439 20.54 12.9954 21.6827C12.4701 21.3114 11.8762 21.0483 11.2483 20.9088C10.0259 20.632 9.31802 20.1114 9.2396 20.0516C8.78446 19.5826 8.45602 19.0056 8.28511 18.3748C8.25337 18.2594 8.17712 18.1614 8.07312 18.1022C7.96912 18.043 7.84588 18.0275 7.73048 18.0592C7.05718 18.2842 7.6211 19.1555 7.77291 19.5343C6.54472 19.0665 4.79337 18.2177 4.17592 17.0137C4.14887 16.961 4.11169 16.9141 4.06651 16.8757C4.02133 16.8373 3.96904 16.8082 3.9126 16.79C3.85617 16.7718 3.79672 16.7649 3.73762 16.7698C3.67853 16.7746 3.62097 16.7909 3.56821 16.818C3.51546 16.845 3.46855 16.8822 3.43016 16.9274C3.39177 16.9726 3.36266 17.0249 3.34448 17.0813C3.32631 17.1377 3.31943 17.1972 3.32423 17.2563C3.32903 17.3154 3.34543 17.373 3.37248 17.4257C4.37546 19.3824 7.55299 20.4568 8.54166 20.7508C8.75694 22.2095 9.33437 23.591 10.2212 24.7691C9.11191 24.4412 7.96145 24.2738 6.80476 24.2718C2.64436 24.204 1.88916 21.3662 1.85949 21.2476C1.83027 21.1327 1.75701 21.0339 1.65552 20.9725C1.55404 20.9112 1.4325 20.8922 1.31715 20.9198C1.20181 20.9473 1.10192 21.0191 1.03909 21.1197C0.976261 21.2203 0.955524 21.3415 0.981364 21.4572C0.990006 21.4938 1.90593 25.0946 6.79018 25.1747C8.23029 25.1982 9.30809 25.4158 10.093 25.6777C9.69014 28.0778 11.7802 30.0866 13.8214 30.7097C14.8388 31.0231 15.6257 31.7756 15.8482 32.0047C16.0614 33.6049 16.1646 35.2178 16.1569 36.8321C15.6278 35.5578 14.7351 34.4677 13.5901 33.6978C13.487 33.6388 13.3647 33.6229 13.2499 33.6535C13.1351 33.6841 13.037 33.7587 12.9768 33.8611C12.9167 33.9636 12.8993 34.0856 12.9286 34.2008C12.9578 34.3159 13.0312 34.4149 13.133 34.4763C13.2669 34.5556 16.3999 36.4685 15.6984 40.8439C15.6268 41.2792 15.1513 41.8911 15.7292 42.1466C15.8411 42.1891 15.9653 42.1854 16.0745 42.1364C16.1836 42.0873 16.2689 41.9969 16.3114 41.885C17.6022 38.4876 16.8734 32.8074 16.7482 31.918C16.9948 31.3183 17.3546 30.7717 17.8078 30.308C17.8501 30.2665 17.8837 30.2169 17.9069 30.1623C17.93 30.1077 17.9422 30.0491 17.9427 29.9898C17.9431 29.9305 17.9319 29.8717 17.9097 29.8167C17.8874 29.7617 17.8545 29.7117 17.8129 29.6694C17.2734 29.1875 16.7929 30.1299 16.5179 30.4579C16.3257 29.3846 16.0817 28.3097 15.7976 27.2449C16.0099 25.9631 17.0717 25.1314 17.8647 24.7642C17.5452 26.4452 17.9905 28.1722 18.8535 28.902C19.5577 29.5011 19.9105 30.2917 20.0605 30.6418C19.732 31.8098 18.7407 38.6389 18.7509 41.5079C18.749 41.5672 18.7588 41.6263 18.7797 41.6817C18.8007 41.7372 18.8323 41.7881 18.8729 41.8313C18.9135 41.8746 18.9622 41.9094 19.0162 41.9339C19.0703 41.9583 19.1286 41.9719 19.1879 41.9738C19.2472 41.9757 19.3063 41.9659 19.3618 41.9449C19.4173 41.924 19.4681 41.8923 19.5114 41.8518C19.5546 41.8112 19.5895 41.7625 19.6139 41.7084C19.6383 41.6544 19.6519 41.5961 19.6538 41.5368C19.6639 41.2217 19.6768 40.9087 19.6925 40.5976C20.425 36.5848 24.9178 34.2621 24.9658 34.2377C25.0718 34.1832 25.152 34.089 25.1889 33.9756C25.2257 33.8622 25.2162 33.7388 25.1624 33.6324C25.1086 33.526 25.0149 33.4452 24.9018 33.4077C24.7886 33.3701 24.6652 33.3788 24.5584 33.4319C24.4037 33.5099 21.5931 34.9597 19.9171 37.6346C19.9306 37.4984 19.9445 37.3634 19.9587 37.2295C21.5959 32.0728 27.3196 29.9082 27.3774 29.8868C27.4877 29.8439 27.5768 29.7595 27.6254 29.6517C27.6741 29.5439 27.6785 29.4212 27.6377 29.3102C27.5969 29.1991 27.5141 29.1085 27.4071 29.0579C27.3002 29.0073 27.1777 29.0007 27.0659 29.0395C26.8562 29.1169 22.7327 30.6697 20.32 34.3834C20.6974 31.8528 20.9366 30.9446 21.0074 30.4776C21.2229 30.2696 21.8336 29.8692 22.9114 29.5539C24.7741 29.0086 26.5807 27.3749 26.6178 25.2489C30.445 23.7171 31.3128 20.6463 31.3482 20.513C31.3649 20.4553 31.3699 20.3949 31.3629 20.3353C31.356 20.2757 31.3373 20.2181 31.3078 20.1658C31.2783 20.1135 31.2387 20.0676 31.1913 20.0308C31.1439 19.994 31.0896 19.9671 31.0317 19.9515C30.9737 19.9359 30.9132 19.932 30.8538 19.9401C30.7943 19.9482 30.737 19.9681 30.6853 19.9985C30.6336 20.029 30.5885 20.0695 30.5526 20.1176C30.5168 20.1657 30.4908 20.2205 30.4764 20.2787C30.4685 20.3075 29.6581 23.1794 26.0249 24.5101C25.7593 24.6087 22.8685 25.148 22.2172 25.6322C22.8082 23.5986 23.5048 21.5273 25.6913 21.0386C26.1741 20.9376 26.6449 20.7854 27.0954 20.5847C26.8855 21.4492 26.5238 22.2696 26.0273 23.0078C25.9612 23.1068 25.9368 23.228 25.9596 23.3449C25.9824 23.4618 26.0504 23.5649 26.1489 23.6319C26.2474 23.6988 26.3684 23.7241 26.4855 23.7023C26.6025 23.6805 26.7063 23.6133 26.774 23.5153C27.4922 22.4384 27.9602 21.2144 28.1438 19.933C28.5962 19.4569 28.9424 18.8902 29.1596 18.2704C29.3768 17.6506 29.4601 16.9917 29.4039 16.3373C32.9116 16.1666 34.9071 13.459 34.9942 13.3384ZM11.5154 9.78686C12.3963 11.1387 12.8782 12.7115 12.9059 14.3248C12.3212 14.9542 11.9169 15.7295 11.7353 16.5691C11.1459 15.3438 10.5734 14.2345 10.0595 13.2809C9.86801 11.9222 10.479 10.6382 11.5154 9.78686ZM7.77485 6.46358C7.86981 6.26599 7.98704 6.07991 8.12427 5.90894C8.64265 6.35936 9.7309 7.58174 10.0183 10.0758C9.63605 10.582 9.3681 11.1651 9.23289 11.7848C8.58293 10.6416 8.25028 10.1113 7.96407 9.64369C7.67049 9.17125 7.4994 8.63303 7.46629 8.07779C7.43318 7.52255 7.5391 6.96782 7.77446 6.46383L7.77485 6.46358ZM3.81593 3.75748C5.29783 4.25343 6.31358 5.12227 6.84255 6.34169C6.58435 6.98879 6.49487 7.69091 6.58252 8.38209C5.94698 8.0143 5.25697 7.74997 4.53837 7.59903C3.58866 6.25681 3.69365 4.55783 3.81593 3.75748ZM3.7219 8.36597C6.35679 8.74776 7.13586 10.0226 7.17404 10.0879C7.21983 10.1616 7.73512 10.9663 8.56888 12.4437C8.13737 12.302 7.69286 12.2035 7.24188 12.1497C6.7099 12.0794 6.20368 11.8781 5.76862 11.564C4.25318 10.6939 3.80561 9.14555 3.7219 8.36597ZM9.72832 16.6405C8.22229 16.2473 5.99396 15.4454 5.88561 12.6787C6.28037 12.8694 6.70387 12.9938 7.13908 13.0468C7.89042 13.1354 8.6175 13.3686 9.28023 13.7335C9.79204 14.6836 10.3621 15.7888 10.9488 17.0097C10.5537 16.8507 10.1453 16.7272 9.72832 16.6405ZM11.0485 21.7886C13.4124 22.3416 14.0358 24.2023 14.7303 26.7674C14.1674 26.3657 13.5169 26.1039 12.8326 26.0037C11.1683 24.9155 9.99459 23.2204 9.56154 21.2796C10.0371 21.5032 10.5357 21.6738 11.0485 21.7886ZM10.9582 26.5161C11.5371 26.6924 12.1293 26.8211 12.7291 26.901C13.6906 27.0171 14.6456 27.7041 15.1841 28.4944C15.3551 29.2065 15.5045 29.9202 15.6326 30.6355C15.1632 30.2913 14.6415 30.0249 14.0875 29.8465C12.6271 29.3959 11.1526 28.117 10.9582 26.5161ZM15.3849 25.7925C15.2605 25.3798 15.131 24.9698 14.9963 24.5625C14.8064 23.9595 14.5836 23.3603 14.3724 22.7697C14.4369 21.9071 15.016 20.4891 16.1125 19.6058C16.7395 21.1305 16.9309 22.7994 16.6654 24.4265C16.146 24.7853 15.7094 25.2511 15.3849 25.7925ZM28.6657 15.5009C28.5067 15.598 28.1664 15.9844 27.0801 16.075C26.732 16.1014 26.3886 16.1723 26.0585 16.286C26.5767 15.2816 27.1446 14.2502 27.7678 13.2002C29.0867 12.5894 29.6768 12.8484 30.6571 12.4214C30.5613 13.0461 30.3343 13.6435 29.9911 14.1743C29.6478 14.7051 29.1961 15.1572 28.6657 15.5009ZM30.9316 11.2379C30.5009 11.5512 29.997 11.7485 29.4681 11.8108C29.1447 11.8447 28.8243 11.903 28.5096 11.9851C28.8659 11.4165 29.2382 10.844 29.6265 10.2677C29.9089 9.90925 30.1204 9.50026 30.2497 9.06261C30.8756 8.61233 31.7916 8.3274 32.8794 8.24201C32.7768 8.97813 32.3893 10.4007 30.9316 11.2379ZM28.6743 5.88598C29.0347 6.43283 29.2786 7.048 29.391 7.69319C29.5458 8.5143 29.4156 9.04894 28.8961 9.73656C28.4514 10.3912 28.029 11.0465 27.6267 11.6934C27.5285 11.0083 27.2639 10.3578 26.8562 9.7986C27.1585 7.48436 28.1576 6.33588 28.6747 5.88598H28.6743ZM25.4081 9.5325C26.5457 10.4971 27.0264 11.8929 26.6308 13.3569C26.0931 14.2882 25.5964 15.2019 25.1407 16.0981C24.9903 15.2514 24.6045 14.4643 24.0274 13.8268C24.0778 12.2945 24.556 10.807 25.4081 9.5325ZM22.8708 13.9875C24.2162 14.996 24.6679 16.8303 24.0112 18.434C23.6765 19.166 23.368 19.8766 23.0858 20.5657C22.8526 19.9095 22.4956 19.3041 22.0343 18.7824C21.7525 16.4628 22.4799 14.6981 22.8708 13.9875ZM20.8692 18.8877C22.1259 20.0054 22.3473 21.1109 22.5018 22.0431C22.2807 22.656 22.0532 23.2058 21.8658 23.8045C21.7268 24.2099 21.5972 24.6021 21.4778 24.9783C21.1492 24.4989 20.7601 24.0639 20.3201 23.6842C20.0355 22.0659 20.2262 20.3998 20.8692 18.8877ZM19.4375 28.2113C18.6832 27.6249 18.3291 25.3888 19.0918 23.8629C19.667 24.2731 20.7152 25.1376 21.104 26.2105C20.7386 27.4664 20.4919 28.4935 20.3328 29.2339C20.0835 28.8526 19.7817 28.5084 19.4365 28.2113H19.4375ZM21.7185 27.4211C22.2488 26.5484 22.7739 26.2087 24.0598 25.9081C24.7385 25.7492 25.3064 25.6131 25.6963 25.5187C25.5052 27.0585 24.0698 28.273 22.6589 28.6859C22.1746 28.8253 21.7045 29.0099 21.2548 29.2371C21.3618 28.7517 21.5045 28.1536 21.6907 27.4577C21.7002 27.446 21.7091 27.4338 21.7174 27.4211H21.7185ZM27.4345 19.3636C26.8508 19.7537 26.1945 20.0225 25.5048 20.154C24.9469 20.2736 24.4187 20.5039 23.9514 20.8313C24.3684 19.8212 24.8404 18.759 25.3735 17.6568C26.7396 16.6757 27.4722 17.1716 28.5157 16.6434C28.5312 17.1467 28.4432 17.6478 28.2573 18.1156C28.0713 18.5835 27.7913 19.0083 27.4345 19.3636Z" fill="white"/>
<path d="M3.16539 15.5612C3.56176 15.1055 2.89452 14.5046 2.48254 14.9465C2.08617 15.4022 2.75393 16.0031 3.16539 15.5612Z" fill="white"/>
<path d="M15.8127 7.84491C15.4163 8.30062 16.0835 8.90156 16.4955 8.45965C16.8919 8.00395 16.2241 7.40301 15.8127 7.84491Z" fill="white"/>
<path d="M24.3196 1.5003C24.7753 1.89654 25.3761 1.22943 24.9342 0.816681C24.4785 0.420956 23.8776 1.08871 24.3196 1.5003Z" fill="white"/>
</svg>
