<svg width="44" height="44" viewBox="0 0 44 44" fill="none" xmlns="http://www.w3.org/2000/svg">
<path d="M22.0002 11.355C18.8698 11.355 16.3228 13.902 16.3228 17.0324C16.3228 20.1628 18.8698 22.7098 22.0002 22.7098C25.1306 22.7098 27.6776 20.1628 27.6776 17.0324C27.6776 13.902 25.1306 11.355 22.0002 11.355ZM22.0002 21.2905C19.6519 21.2905 17.7421 19.3807 17.7421 17.0324C17.7421 14.6841 19.6519 12.7743 22.0002 12.7743C24.3485 12.7743 26.2582 14.6841 26.2582 17.0324C26.2582 19.3807 24.3485 21.2905 22.0002 21.2905Z" fill="white"/>
<path d="M21.9998 14.1934C20.4343 14.1934 19.1611 15.4665 19.1611 17.0321C19.1611 18.5976 20.4343 19.8708 21.9998 19.8708C23.5654 19.8708 24.8386 18.5976 24.8386 17.0321C24.8386 15.4665 23.5654 14.1934 21.9998 14.1934ZM21.9998 18.4514C21.2171 18.4514 20.5805 17.8148 20.5805 17.0321C20.5805 16.2493 21.2171 15.6127 21.9998 15.6127C22.7826 15.6127 23.4192 16.2493 23.4192 17.0321C23.4192 17.8148 22.7826 18.4514 21.9998 18.4514Z" fill="white"/>
<path d="M40.4516 13.4839C38.7385 13.4839 37.3049 14.7052 36.9749 16.3226H35.4505C35.2852 13.151 34.0319 10.2463 32.0228 8.01226L33.3406 6.69439C33.7636 6.94419 34.249 7.09677 34.7742 7.09677C36.3397 7.09677 37.6129 5.82361 37.6129 4.25806C37.6129 2.69252 36.3397 1.41935 34.7742 1.41935C33.2086 1.41935 31.9355 2.69252 31.9355 4.25806C31.9355 4.78323 32.0881 5.26864 32.3379 5.6909L31.0157 7.01303C29.2607 5.43116 27.0856 4.30064 24.6542 3.81664C24.7677 3.51077 24.8387 3.18361 24.8387 2.83871C24.8387 1.27316 23.5655 0 22 0C20.4345 0 19.1613 1.27316 19.1613 2.83871C19.1613 3.18361 19.2323 3.51077 19.3458 3.81664C16.9152 4.30064 14.74 5.43116 12.985 7.01303L11.6628 5.6909C11.9119 5.26864 12.0645 4.78323 12.0645 4.25806C12.0645 2.69252 10.7914 1.41935 9.22581 1.41935C7.66026 1.41935 6.3871 2.69252 6.3871 4.25806C6.3871 5.82361 7.66026 7.09677 9.22581 7.09677C9.75097 7.09677 10.2364 6.94419 10.6586 6.69439L11.9765 8.01226C9.96742 10.2463 8.71413 13.151 8.54877 16.3219H7.02439C6.6951 14.7052 5.26155 13.4839 3.54839 13.4839C1.59181 13.4839 0 15.0757 0 17.0323C0 18.9888 1.59181 20.5806 3.54839 20.5806C5.26155 20.5806 6.6951 19.3593 7.0251 17.7419H8.54948C8.71129 20.8219 9.90781 23.7437 11.9815 26.048L10.6594 27.3701C10.2364 27.1203 9.75097 26.9677 9.22581 26.9677C7.66026 26.9677 6.3871 28.2409 6.3871 29.8064C6.3871 31.372 7.66026 32.6452 9.22581 32.6452C10.7914 32.6452 12.0645 31.372 12.0645 29.8064C12.0645 29.2813 11.9119 28.7959 11.6621 28.3736L12.9367 27.099L14.591 28.903C15.5476 29.9463 16.1324 31.257 16.2814 32.6494C15.1268 32.6721 14.1935 33.6146 14.1935 34.7742C14.1935 35.3214 14.4072 35.816 14.7471 36.1935C14.4065 36.5711 14.1935 37.0657 14.1935 37.6129C14.1935 38.7867 15.1488 39.7419 16.3226 39.7419H16.3794C16.7257 42.1456 18.793 44 21.2903 44H22.7097C25.207 44 27.2743 42.1456 27.6206 39.7419H27.6774C28.8512 39.7419 29.8065 38.7867 29.8065 37.6129C29.8065 37.0657 29.5928 36.5711 29.2529 36.1935C29.5936 35.816 29.8065 35.3214 29.8065 34.7742C29.8065 33.6146 28.8732 32.6721 27.7186 32.6494C27.8676 31.257 28.4524 29.947 29.409 28.903L31.0633 27.099L32.3379 28.3736C32.0881 28.7959 31.9355 29.2813 31.9355 29.8064C31.9355 31.372 33.2086 32.6452 34.7742 32.6452C36.3397 32.6452 37.6129 31.372 37.6129 29.8064C37.6129 28.2409 36.3397 26.9677 34.7742 26.9677C34.249 26.9677 33.7636 27.1203 33.3414 27.3701L32.0192 26.048C34.0922 23.7437 35.2894 20.8219 35.4512 17.7419H36.9756C37.3056 19.3593 38.7385 20.5806 40.4523 20.5806C42.4089 20.5806 44.0007 18.9888 44.0007 17.0323C44.0007 15.0757 42.4082 13.4839 40.4516 13.4839ZM3.54839 19.1613C2.37458 19.1613 1.41935 18.2061 1.41935 17.0323C1.41935 15.8585 2.37458 14.9032 3.54839 14.9032C4.72219 14.9032 5.67742 15.8585 5.67742 17.0323C5.67742 18.2061 4.72219 19.1613 3.54839 19.1613ZM34.0312 16.3226H31.2258V14.4008L29.9299 13.943C29.8859 13.8316 29.8398 13.7202 29.7908 13.6088L30.3841 12.3683L29.0258 11.0092L31.0207 9.01432C32.7729 10.9894 33.8694 13.5399 34.0312 16.3226ZM28.7072 19.333C28.6149 19.6027 28.5014 19.8759 28.3686 20.1463L28.2168 20.455L28.6703 21.4017L26.3695 23.7025L25.4221 23.2497L25.1126 23.4016C24.8465 23.5329 24.5726 23.6465 24.2994 23.7401L23.9743 23.8515L23.6266 24.8387H20.3734L20.025 23.8508L19.6999 23.7394C19.4267 23.6457 19.1528 23.5322 18.8866 23.4009L18.5772 23.249L17.6298 23.7018L15.329 21.401L15.7825 20.4543L15.6306 20.1456C15.4979 19.8752 15.3844 19.602 15.2921 19.3323L15.1814 19.0073L14.1935 18.6588V15.405L15.1821 15.0565L15.2928 14.7315C15.3851 14.4618 15.4986 14.1886 15.6314 13.9182L15.7832 13.6095L15.3297 12.6628L17.6305 10.362L18.5779 10.8148L18.8874 10.6629C19.1535 10.5316 19.4274 10.4181 19.7006 10.3244L20.0257 10.213L20.3734 9.22581H23.6266L23.975 10.2137L24.3001 10.3251C24.5733 10.4188 24.8472 10.5323 25.1134 10.6636L25.4228 10.8155L26.3702 10.3627L28.671 12.6635L28.2175 13.6102L28.3694 13.9189C28.5021 14.1893 28.6156 14.4625 28.7079 14.7322L28.8186 15.0572L29.8065 15.4057V18.6595L28.8179 19.008L28.7072 19.333ZM22 35.4839C21.2172 35.4839 20.5806 34.8473 20.5806 34.0645C20.5806 33.2817 21.2172 32.6452 22 32.6452C22.7828 32.6452 23.4194 33.2817 23.4194 34.0645C23.4194 34.8473 22.7828 35.4839 22 35.4839ZM34.7742 2.83871C35.557 2.83871 36.1936 3.47529 36.1936 4.25806C36.1936 5.04084 35.557 5.67742 34.7742 5.67742C33.9914 5.67742 33.3548 5.04084 33.3548 4.25806C33.3548 3.47529 33.9914 2.83871 34.7742 2.83871ZM28.0216 10.0072L26.6633 8.64813L25.4221 9.24142C25.3121 9.19245 25.1999 9.14632 25.0878 9.10232L24.6315 7.80645H22.7097V5.57664C23.0745 5.48155 23.4087 5.31761 23.7018 5.0969C26.1211 5.43826 28.2885 6.48574 30.0101 8.01864L28.0216 10.0072ZM22 1.41935C22.7828 1.41935 23.4194 2.05594 23.4194 2.83871C23.4194 3.62148 22.7828 4.25806 22 4.25806C21.2172 4.25806 20.5806 3.62148 20.5806 2.83871C20.5806 2.05594 21.2172 1.41935 22 1.41935ZM20.2982 5.0969C20.5913 5.31761 20.9256 5.48155 21.2903 5.57664V7.80645H19.3685L18.9115 9.10232C18.7994 9.14632 18.6879 9.19245 18.5772 9.24142L17.336 8.64813L15.9777 10.0072L13.9892 8.01864C15.7115 6.48574 17.8789 5.43826 20.2982 5.0969ZM9.22581 5.67742C8.44303 5.67742 7.80645 5.04084 7.80645 4.25806C7.80645 3.47529 8.44303 2.83871 9.22581 2.83871C10.0086 2.83871 10.6452 3.47529 10.6452 4.25806C10.6452 5.04084 10.0086 5.67742 9.22581 5.67742ZM12.98 9.01574L14.9749 11.0106L13.6166 12.3697L14.2099 13.6102C14.1609 13.7216 14.1141 13.833 14.0708 13.9445L12.7742 14.4008V16.3226H9.96884C10.1306 13.5399 11.2271 10.9894 12.98 9.01574ZM9.96884 17.7419H12.7742V19.6637L14.0701 20.1215C14.1141 20.2329 14.1602 20.3443 14.2092 20.4557L13.6159 21.6963L14.9742 23.0553L12.9871 25.0424C11.1803 23.007 10.1271 20.4458 9.96884 17.7419ZM9.22581 31.2258C8.44303 31.2258 7.80645 30.5892 7.80645 29.8064C7.80645 29.0237 8.44303 28.3871 9.22581 28.3871C10.0086 28.3871 10.6452 29.0237 10.6452 29.8064C10.6452 30.5892 10.0086 31.2258 9.22581 31.2258ZM13.9416 26.0941L15.9784 24.0574L17.3367 25.4164L18.5779 24.8231C18.6879 24.8721 18.8001 24.9182 18.9122 24.9622L19.3685 26.2581H21.2903V31.3266C20.5501 31.5189 19.9327 32.0001 19.5559 32.6452H17.7086C17.5539 30.8972 16.8328 29.2494 15.637 27.9435L13.9416 26.0941ZM16.3226 34.0645H19.1613C19.1613 34.584 19.3117 35.0644 19.5559 35.4839H16.3226C15.9308 35.4839 15.6129 35.1652 15.6129 34.7742C15.6129 34.3832 15.9308 34.0645 16.3226 34.0645ZM22.7097 42.5806H21.2903C19.5772 42.5806 18.1436 41.3593 17.8136 39.7419H26.1864C25.8564 41.3593 24.4228 42.5806 22.7097 42.5806ZM27.6774 38.3226H16.3226C15.9308 38.3226 15.6129 38.0039 15.6129 37.6129C15.6129 37.2219 15.9308 36.9032 16.3226 36.9032H27.6774C28.0692 36.9032 28.3871 37.2219 28.3871 37.6129C28.3871 38.0039 28.0692 38.3226 27.6774 38.3226ZM28.3871 34.7742C28.3871 35.1652 28.0692 35.4839 27.6774 35.4839H24.4441C24.6883 35.0644 24.8387 34.584 24.8387 34.0645H27.6774C28.0692 34.0645 28.3871 34.3832 28.3871 34.7742ZM28.363 27.9435C27.1672 29.2494 26.4454 30.8972 26.2914 32.6452H24.4441C24.068 32.0001 23.4499 31.5189 22.7097 31.3266V26.2581H24.6315L25.0885 24.9622C25.2006 24.9182 25.3121 24.8721 25.4228 24.8231L26.664 25.4164L28.0223 24.0574L30.0591 26.0941L28.363 27.9435ZM34.7742 28.3871C35.557 28.3871 36.1936 29.0237 36.1936 29.8064C36.1936 30.5892 35.557 31.2258 34.7742 31.2258C33.9914 31.2258 33.3548 30.5892 33.3548 29.8064C33.3548 29.0237 33.9914 28.3871 34.7742 28.3871ZM31.0122 25.041L29.0251 23.0539L30.3834 21.6948L29.7901 20.4543C29.8391 20.3429 29.8859 20.2315 29.9292 20.1201L31.2258 19.6637V17.7419H34.0312C33.8729 20.4458 32.8197 23.007 31.0122 25.041ZM40.4516 19.1613C39.2778 19.1613 38.3226 18.2061 38.3226 17.0323C38.3226 15.8585 39.2778 14.9032 40.4516 14.9032C41.6254 14.9032 42.5806 15.8585 42.5806 17.0323C42.5806 18.2061 41.6254 19.1613 40.4516 19.1613Z" fill="white"/>
</svg>
