<svg width="47" height="23" viewBox="0 0 47 23" fill="none" xmlns="http://www.w3.org/2000/svg">
<path d="M35.3343 15.6219C35.3168 15.5595 35.2831 15.5029 35.2366 15.458L31.2578 11.75H30.0171L28.4473 14.4855L32.607 16.9514L34.9545 22.0909C35.0375 22.372 35.2279 22.6084 35.484 22.7481C35.7401 22.8878 36.0408 22.9193 36.3199 22.8357C36.5991 22.7522 36.8339 22.5604 36.9726 22.3025C37.1113 22.0446 37.1426 21.7418 37.0596 21.4607L35.3343 15.6219Z" fill="white"/>
<path d="M16.1629 11.75L11.8824 15.4464C11.8324 15.4912 11.7962 15.5476 11.7774 15.6098L9.9251 21.4776C9.90835 21.5541 9.89923 21.6319 9.89786 21.71C9.8759 21.9807 9.96305 22.2493 10.1422 22.4632C10.3214 22.677 10.5797 22.8208 10.8665 22.8662C11.1533 22.9116 11.448 22.8555 11.6928 22.7088C11.9376 22.5621 12.1148 22.3354 12.1898 22.0731L14.727 16.9352L19.1708 14.4951L17.4742 11.75H16.1629Z" fill="white"/>
<path d="M23.5036 6.18433C23.0141 6.18362 22.5353 6.32818 22.128 6.59972C21.7206 6.87126 21.403 7.25756 21.2154 7.70971C21.0277 8.16187 20.9784 8.65954 21.0737 9.13972C21.1691 9.6199 21.4047 10.061 21.7509 10.4072C22.0971 10.7533 22.5382 10.989 23.0183 11.0843C23.4985 11.1797 23.9962 11.1304 24.4483 10.9427C24.9005 10.755 25.2868 10.4374 25.5583 10.0301C25.8299 9.62273 25.9744 9.14397 25.9737 8.65442C25.9728 7.9996 25.7122 7.37188 25.2492 6.90885C24.7862 6.44582 24.1585 6.18528 23.5036 6.18433Z" fill="white"/>
<path d="M46.3023 0.875342H46.2583L42.7664 0.131638C41.5316 -0.129971 40.2468 0.00925307 39.0946 0.529519L38.3382 0.871623V0.373341C38.3382 0.27472 38.2995 0.180137 38.2307 0.110401C38.1618 0.0406656 38.0684 0.00148871 37.971 0.00148871C37.8736 0.00148871 37.7802 0.0406656 37.7114 0.110401C37.6425 0.180137 37.6038 0.27472 37.6038 0.373341V0.867905L36.8511 0.5258C35.6986 0.00676577 34.4142 -0.132416 33.1793 0.127918L29.6691 0.871623C28.9347 1.06127 28.9347 1.7901 28.9568 2.06155V2.15079C28.9577 2.39507 29.054 2.62907 29.2245 2.8018C29.3951 2.97453 29.6262 3.07201 29.8674 3.07299H37.6075V4.21085H37.0714C36.8829 4.21062 36.7014 4.28384 36.5647 4.41537C36.428 4.5469 36.3465 4.72665 36.3371 4.91737L36.2306 6.82126H29.2542L27.3302 3.44856C27.202 3.22375 27.018 3.03683 26.7964 2.90636C26.5748 2.77589 26.3234 2.70642 26.0671 2.70485H20.8568C20.5999 2.70577 20.3477 2.77494 20.1254 2.90544C19.9031 3.03594 19.7185 3.22321 19.59 3.44856L17.6697 6.81754H10.6933L10.5831 4.91366C10.5737 4.72293 10.4922 4.54318 10.3555 4.41165C10.2187 4.28013 10.0373 4.2069 9.84875 4.20714H9.37876V3.06927H17.1189C17.3607 3.06927 17.5927 2.97223 17.7641 2.79939C17.9355 2.62655 18.0322 2.392 18.0332 2.14708V2.09502C18.0707 1.84557 18.0235 1.59063 17.8995 1.37181C17.7754 1.15299 17.5818 0.983223 17.3502 0.890215H17.3062L13.8106 0.146511C12.5759 -0.115866 11.2908 0.0233844 10.1388 0.544394L9.38243 0.886497V0.373341C9.38243 0.27472 9.34375 0.180137 9.27489 0.110401C9.20603 0.0406656 9.11263 0.00148871 9.01525 0.00148871C8.91787 0.00148871 8.82448 0.0406656 8.75562 0.110401C8.68676 0.180137 8.64807 0.27472 8.64807 0.373341V0.867905L7.91371 0.5258C6.761 0.00750113 5.47682 -0.131655 4.24192 0.127918L0.720671 0.867905C-0.0136882 1.05755 -0.0136882 1.78638 0.00467079 2.05783V2.14708C0.00465326 2.38974 0.0990782 2.62262 0.267475 2.79525C0.435871 2.96788 0.664667 3.06633 0.90426 3.06927H8.6444V4.20714H8.12301C7.93444 4.2069 7.75301 4.28013 7.6163 4.41165C7.47959 4.54318 7.39808 4.72293 7.38865 4.91366L7.06186 10.5993C7.05535 10.7127 7.07181 10.8262 7.11021 10.9329C7.14862 11.0396 7.20818 11.1372 7.28521 11.2198C7.36224 11.3023 7.45513 11.368 7.55816 11.4129C7.66119 11.4577 7.77219 11.4808 7.88434 11.4806H10.1094C10.2215 11.4807 10.3323 11.4577 10.4352 11.413C10.5381 11.3682 10.6309 11.3026 10.7079 11.2203C10.8334 11.0846 10.9108 10.9107 10.9283 10.7257H17.6697L19.59 14.0984C19.7185 14.3237 19.9031 14.511 20.1254 14.6415C20.3477 14.772 20.5999 14.8412 20.8568 14.8421H26.0854C26.3417 14.8405 26.5932 14.7711 26.8148 14.6406C27.0364 14.5101 27.2204 14.3232 27.3485 14.0984L29.2725 10.7257H36.0176C36.0386 10.9305 36.134 11.1201 36.2854 11.2575C36.4367 11.395 36.6331 11.4705 36.8364 11.4694H39.0615C39.1735 11.4696 39.2844 11.4466 39.3873 11.4018C39.4902 11.3571 39.583 11.2915 39.66 11.2091C39.7362 11.1258 39.7952 11.028 39.8337 10.9214C39.8721 10.8148 39.8892 10.7015 39.884 10.5881L39.5536 4.9025C39.5441 4.71177 39.4626 4.53203 39.3259 4.4005C39.1892 4.26897 39.0078 4.19574 38.8192 4.19598H38.3345V3.06927H46.0783C46.3192 3.06828 46.5499 2.97069 46.7199 2.79785C46.8898 2.62502 46.9853 2.39101 46.9853 2.14708V2.09502C47.0263 1.84327 46.9809 1.58489 46.8567 1.36294C46.7324 1.14099 46.5367 0.968889 46.3023 0.875342ZM23.4858 11.8859C22.84 11.8866 22.2086 11.6934 21.6713 11.3306C21.134 10.9678 20.715 10.4517 20.4674 9.84776C20.2198 9.24377 20.1546 8.57898 20.2802 7.93748C20.4057 7.29598 20.7163 6.7066 21.1727 6.24391C21.629 5.78121 22.2106 5.466 22.8439 5.33815C23.4772 5.21029 24.1338 5.27554 24.7304 5.52563C25.3271 5.77573 25.8371 6.19944 26.196 6.74315C26.5548 7.28686 26.7463 7.92614 26.7463 8.58012C26.7454 9.45591 26.4017 10.2956 25.7905 10.9152C25.1793 11.5349 24.3506 11.8839 23.4858 11.8859Z" fill="white"/>
</svg>
