<svg width="64" height="89" viewBox="0 0 64 89" fill="none" xmlns="http://www.w3.org/2000/svg">
<path d="M16.6842 63.0417C15.6607 63.0417 14.83 62.211 14.83 61.1875V18.5417C14.83 14.4514 18.1564 11.125 22.2467 11.125C26.3369 11.125 29.6633 14.4514 29.6633 18.5417V57.4792C29.6633 58.5027 28.8327 59.3333 27.8092 59.3333C26.7857 59.3333 25.955 58.5027 25.955 57.4792V18.5417C25.955 16.4947 24.2937 14.8333 22.2467 14.8333C20.1997 14.8333 18.5383 16.4947 18.5383 18.5417V61.1875C18.5383 62.211 17.7077 63.0417 16.6842 63.0417Z" fill="#1D69E7"/>
<path d="M38.9342 59.3333C37.9107 59.3333 37.08 58.5027 37.08 57.4792V40.7917C37.08 38.7447 35.4187 37.0833 33.3717 37.0833C31.3247 37.0833 29.6633 38.7447 29.6633 40.7917C29.6633 41.8152 28.8327 42.6458 27.8092 42.6458C26.7857 42.6458 25.955 41.8152 25.955 40.7917C25.955 36.7014 29.2814 33.375 33.3717 33.375C37.4619 33.375 40.7883 36.7014 40.7883 40.7917V57.4792C40.7883 58.5027 39.9577 59.3333 38.9342 59.3333Z" fill="#1D69E7"/>
<path d="M50.0592 59.3335C49.0357 59.3335 48.205 58.5028 48.205 57.4793V44.5002C48.205 42.4532 46.5437 40.7918 44.4967 40.7918C42.4497 40.7918 40.7883 42.4532 40.7883 44.5002C40.7883 45.5237 39.9577 46.3543 38.9342 46.3543C37.9107 46.3543 37.08 45.5237 37.08 44.5002C37.08 40.4099 40.4064 37.0835 44.4967 37.0835C48.5869 37.0835 51.9133 40.4099 51.9133 44.5002V57.4793C51.9133 58.5028 51.0827 59.3335 50.0592 59.3335Z" fill="#1D69E7"/>
<path d="M46.3505 88.9998H24.8904C18.6492 88.9998 12.2116 86.2816 7.66145 81.7278C2.64037 76.703 -0.0110901 69.5348 3.48651e-05 61.0056C0.0037432 53.9524 5.9037 48.2082 13.1461 48.2082H16.6838C17.7073 48.2082 18.538 49.0388 18.538 50.0623C18.538 51.0858 17.7073 51.9165 16.6838 51.9165H13.1461C7.94699 51.9165 3.71208 55.9994 3.70837 61.0093C3.70095 68.6411 5.91483 74.7265 10.2832 79.106C14.8408 83.6673 20.8149 85.2915 24.8904 85.2915H46.3505C53.5076 85.2915 59.3297 79.4694 59.3297 72.3123V48.2082C59.3297 46.1612 57.6683 44.4998 55.6213 44.4998C53.5743 44.4998 51.913 46.1612 51.913 48.2082C51.913 49.2317 51.0823 50.0623 50.0588 50.0623C49.0353 50.0623 48.2047 49.2317 48.2047 48.2082C48.2047 44.1179 51.531 40.7915 55.6213 40.7915C59.7116 40.7915 63.038 44.1179 63.038 48.2082V72.3123C63.038 81.5127 55.5509 88.9998 46.3505 88.9998Z" fill="#1D69E7"/>
<path d="M35.2258 30.8533C34.8142 30.8533 34.3952 30.7161 34.054 30.4343C33.2604 29.7853 33.1454 28.6209 33.7944 27.8273C35.9415 25.1944 37.08 21.983 37.08 18.5417C37.08 10.3611 30.4272 3.70833 22.2467 3.70833C14.0661 3.70833 7.41332 10.3611 7.41332 18.5417C7.41332 21.983 8.55178 25.1944 10.7026 27.8273C11.3516 28.6209 11.2366 29.7853 10.443 30.4343C9.65315 31.087 8.48503 30.9683 7.83607 30.1747C5.13269 26.8706 3.70499 22.847 3.70499 18.5417C3.70499 8.31779 12.0228 0 22.2467 0C32.4705 0 40.7883 8.31779 40.7883 18.5417C40.7883 22.847 39.3606 26.8706 36.6609 30.1747C36.2938 30.6234 35.7635 30.8533 35.2258 30.8533Z" fill="#1D69E7"/>
</svg>
