<svg width="37" height="38" viewBox="0 0 37 38" fill="none" xmlns="http://www.w3.org/2000/svg">
<path d="M7.48315 21.6694C5.04613 21.6694 2.92012 23.3991 2.42799 25.7824C2.35999 26.1117 2.44305 26.4504 2.6559 26.7117C2.86942 26.9738 3.18557 27.1241 3.52332 27.1241H11.443C11.7807 27.1241 12.0969 26.9738 12.3104 26.7117C12.5232 26.4504 12.6063 26.1117 12.5383 25.7823C12.0462 23.3991 9.92015 21.6694 7.48315 21.6694ZM6.47133 26.5386C6.56314 26.0635 6.98166 25.7035 7.48316 25.7035C7.98466 25.7035 8.40317 26.0635 8.49498 26.5386H6.47133ZM11.8564 26.3419C11.7546 26.4669 11.6039 26.5386 11.443 26.5386H9.08659C8.98944 25.7395 8.3081 25.118 7.48316 25.118C6.91303 25.118 6.41197 25.4155 6.12409 25.8625L4.58895 25.1353C4.4428 25.066 4.2683 25.1285 4.19905 25.2745C4.12984 25.4206 4.19216 25.5952 4.33828 25.6645L5.90067 26.4046C5.89153 26.4486 5.88518 26.4934 5.8797 26.5386H3.52332C3.3624 26.5386 3.21167 26.4669 3.10984 26.3419C3.00868 26.2177 2.96915 26.0569 3.00141 25.9008C3.43765 23.7882 5.32248 22.2549 7.48316 22.2549C9.64383 22.2549 11.5287 23.7882 11.9649 25.9007C11.9971 26.0569 11.9576 26.2177 11.8564 26.3419Z" fill="white"/>
<path d="M7.33764 28.6943C4.90062 28.6943 2.77461 30.424 2.28249 32.8073C2.21448 33.1366 2.29754 33.4753 2.51037 33.7365C2.72386 33.9986 3.04005 34.149 3.37781 34.149H11.2975C11.6352 34.149 11.9514 33.9987 12.1649 33.7365C12.3777 33.4753 12.4608 33.1366 12.3928 32.8072C11.9006 30.4241 9.77466 28.6943 7.33764 28.6943ZM6.32584 33.5635C6.41768 33.0884 6.83617 32.7284 7.33766 32.7284C7.83914 32.7284 8.25761 33.0884 8.34945 33.5635H6.32584ZM11.711 33.3668C11.6091 33.4918 11.4584 33.5634 11.2975 33.5634H8.94106C8.93558 33.5183 8.92926 33.4735 8.9201 33.4296L10.4825 32.6894C10.6286 32.6201 10.6909 32.4455 10.6217 32.2994C10.5525 32.1534 10.3779 32.0909 10.2318 32.1602L8.69669 32.8875C8.40882 32.4404 7.90779 32.1429 7.33764 32.1429C6.51274 32.1429 5.83138 32.7644 5.7342 33.5635H3.37779C3.21685 33.5635 3.06613 33.4918 2.9643 33.3668C2.86315 33.2426 2.82363 33.0818 2.85589 32.9257C3.29213 30.8131 5.17696 29.2799 7.33764 29.2799C9.4983 29.2799 11.3831 30.8131 11.8194 32.9257C11.8516 33.0818 11.8121 33.2426 11.711 33.3668Z" fill="white"/>
<path d="M14.4012 27.0264H22.4588C22.6204 27.0264 22.7515 26.8954 22.7515 26.7337V23.5725C22.7515 23.4108 22.6204 23.2797 22.4588 23.2797H20.5443C20.3826 23.2797 20.2515 23.4108 20.2515 23.5725V26.4409H19.6791V21.6956C19.6791 21.5339 19.548 21.4028 19.3863 21.4028H17.4736C17.3119 21.4028 17.1808 21.5339 17.1808 21.6956V26.4409H16.6084V24.6774C16.6084 24.5157 16.4773 24.3847 16.3156 24.3847H14.4012C14.2395 24.3847 14.1084 24.5157 14.1084 24.6774V26.7337C14.1084 26.8954 14.2395 27.0264 14.4012 27.0264ZM20.837 23.8652H22.166V26.4409H20.837V23.8652ZM17.7663 21.9884H19.0936V26.4409H17.7663V21.9884ZM16.0229 24.9702V26.4409H14.6939V24.9702H16.0229Z" fill="white"/>
<path d="M22.4739 29.964L20.8802 31.5578L19.0606 29.7382C18.9508 29.6284 18.7564 29.6284 18.6466 29.7382L16.7592 31.6256L16.2195 31.0859C16.1051 30.9717 15.9198 30.9717 15.8055 31.0859L14.6939 32.1975V28.9871C14.6939 28.8254 14.5628 28.6943 14.4012 28.6943C14.2395 28.6943 14.1084 28.8254 14.1084 28.9871V33.7594C14.1084 33.9211 14.2395 34.0521 14.4012 34.0521H22.4587C22.6204 34.0521 22.7515 33.9211 22.7515 33.7594C22.7515 33.5977 22.6204 33.4666 22.4587 33.4666H14.6939V33.0255L16.0125 31.707L16.5522 32.2466C16.6665 32.3609 16.8518 32.3609 16.9662 32.2466L18.8536 30.3592L20.6732 32.1788C20.783 32.2886 20.9774 32.2886 21.0872 32.1788L22.888 30.378C23.0023 30.2637 23.0023 30.0783 22.888 29.964C22.7736 29.8498 22.5883 29.8498 22.4739 29.964Z" fill="white"/>
<path d="M21.1542 18.5028C21.7624 18.5028 22.2572 18.0079 22.2572 17.3998C22.2572 16.7917 21.7624 16.2969 21.1542 16.2969C20.5461 16.2969 20.0513 16.7917 20.0513 17.3998C20.0513 18.0079 20.5461 18.5028 21.1542 18.5028ZM21.1542 16.8824C21.4396 16.8824 21.6717 17.1145 21.6717 17.3998C21.6717 17.6852 21.4395 17.9173 21.1542 17.9173C20.8689 17.9173 20.6368 17.6852 20.6368 17.3998C20.6368 17.1145 20.8689 16.8824 21.1542 16.8824Z" fill="white"/>
<path d="M18.3198 18.5028C18.9279 18.5028 19.4227 18.0079 19.4227 17.3998C19.4227 16.7917 18.9279 16.2969 18.3198 16.2969C17.7116 16.2969 17.2168 16.7917 17.2168 17.3998C17.2168 18.0079 17.7116 18.5028 18.3198 18.5028ZM18.3198 16.8824C18.6051 16.8824 18.8372 17.1145 18.8372 17.3998C18.8372 17.6852 18.6051 17.9173 18.3198 17.9173C18.0344 17.9173 17.8023 17.6852 17.8023 17.3998C17.8023 17.1145 18.0344 16.8824 18.3198 16.8824Z" fill="white"/>
<path d="M23.407 14.9834H1.826C0.819152 14.9834 0 15.8026 0 16.8094V35.5789C0 36.5858 0.819152 37.4049 1.826 37.4049H23.407C24.4139 37.4049 25.233 36.5858 25.233 35.5789V16.8094C25.233 15.8026 24.4139 14.9834 23.407 14.9834ZM1.826 15.5689H23.407C24.091 15.5689 24.6475 16.1254 24.6475 16.8094V19.1669H0.585516V16.8094C0.585516 16.1254 1.14199 15.5689 1.826 15.5689ZM23.407 36.8194H1.826C1.14199 36.8194 0.5855 36.2629 0.5855 35.5789V19.7524H24.6475V35.5789C24.6475 36.2629 24.091 36.8194 23.407 36.8194Z" fill="white"/>
<path d="M18.2737 12.1009C19.5718 12.8416 19.9391 14.0402 19.9427 14.0522C19.9791 14.1767 20.0932 14.2619 20.2229 14.2624H20.2238C20.3535 14.2624 20.4678 14.1766 20.5047 14.0522C20.5082 14.0402 20.8756 12.8416 22.1734 12.101C23.0522 11.6007 23.5982 10.6786 23.5982 9.6946V8.56328C23.5982 8.47431 23.5578 8.3902 23.4883 8.33463C23.4188 8.27913 23.3279 8.25817 23.2411 8.27772C23.1586 8.2963 23.0774 8.31734 22.9967 8.33961C23.1973 7.9312 23.3082 7.46735 23.3082 6.99114V5.85989C23.3082 5.76965 23.2666 5.68449 23.1955 5.62899C23.1243 5.57358 23.0317 5.5541 22.9441 5.57598C22.6863 5.64077 22.44 5.72677 22.2065 5.83173C22.3176 5.31082 22.335 4.77209 22.335 4.49842V3.36718V1.22245C22.335 1.06075 22.2039 0.929688 22.0422 0.929688C21.8805 0.929688 21.7494 1.06075 21.7494 1.22245V3.17503C20.9569 3.5483 20.4948 4.20857 20.2383 4.73547C19.9819 4.20857 19.5198 3.54828 18.7272 3.17503V1.22245C18.7272 1.06075 18.5962 0.929688 18.4345 0.929688C18.2728 0.929688 18.1417 1.06075 18.1417 1.22245V3.3672V4.49844C18.1417 4.91555 18.1569 5.39396 18.2343 5.82882C18.0027 5.72521 17.7586 5.64017 17.5032 5.57598C17.4157 5.55389 17.323 5.57351 17.2518 5.62899C17.1807 5.68449 17.1391 5.76965 17.1391 5.85989V6.99114C17.1391 7.4676 17.2509 7.93126 17.4517 8.33992C17.3707 8.31753 17.2891 8.29636 17.2062 8.27772C17.1195 8.25802 17.0285 8.27899 16.959 8.33463C16.8896 8.3902 16.8491 8.4743 16.8491 8.56328V9.6946C16.8491 10.6786 17.3951 11.6007 18.2737 12.1009ZM19.9518 5.64812C19.9802 5.78351 20.0994 5.8802 20.2378 5.88058H20.2384C20.3765 5.88051 20.4958 5.78374 20.5248 5.64871C20.5276 5.63537 20.7908 4.45575 21.7495 3.8424V4.49845C21.7495 5.243 21.6386 5.89844 21.4515 6.27324C20.8328 6.73027 20.4492 7.28358 20.2237 7.71139C19.9937 7.27507 19.5989 6.70829 18.9583 6.24609C18.7523 5.79704 18.7273 5.04137 18.7273 4.49844V3.84238C19.686 4.45577 19.9491 5.63531 19.9518 5.64812ZM17.7246 6.254C17.9726 6.34237 18.2053 6.45412 18.4197 6.58802C18.4234 6.59057 18.4271 6.59304 18.4309 6.59535L18.4309 6.59542C19.6044 7.33258 19.9375 8.53512 19.9405 8.54635C19.9741 8.67487 20.0902 8.76428 20.223 8.76466H20.2238C20.3563 8.76466 20.4725 8.67523 20.5067 8.54717C20.5099 8.5351 20.843 7.33256 22.0165 6.5954L22.0165 6.59533C22.0202 6.59302 22.0239 6.59062 22.0275 6.58807C22.242 6.45417 22.4747 6.34235 22.7227 6.25396V6.99113C22.7227 7.68366 22.4388 8.34045 21.9627 8.75387C21.0355 9.25842 20.5059 9.95803 20.2237 10.4612C19.9415 9.95801 19.4119 9.25842 18.4847 8.75387C18.0086 8.34046 17.7247 7.68366 17.7247 6.99113L17.7246 6.254ZM17.4347 8.94427C17.6905 9.02366 17.9342 9.12416 18.1625 9.24445C18.1668 9.24707 18.1712 9.24953 18.1757 9.25193L18.1757 9.252C19.5536 9.98707 19.9389 11.2451 19.9424 11.2569C19.9786 11.3822 20.0933 11.4684 20.2237 11.4684C20.3541 11.4684 20.4688 11.3822 20.505 11.2569C20.5086 11.2443 20.8833 9.99269 22.2717 9.252L22.2716 9.25193C22.2761 9.24953 22.2806 9.24707 22.2849 9.24445C22.5131 9.12418 22.7568 9.02366 23.0127 8.94427V9.69462C23.0127 10.4686 22.5801 11.1958 21.8834 11.5924C21.0049 12.0937 20.4978 12.7679 20.2237 13.2563C19.9495 12.7679 19.4423 12.0936 18.5637 11.5922C17.8673 11.1958 17.4347 10.4686 17.4347 9.69464V8.94427Z" fill="white"/>
<path d="M20.2239 3.2244C20.3856 3.2244 20.5167 3.09335 20.5167 2.93165V0.292758C20.5167 0.131075 20.3856 0 20.2239 0C20.0622 0 19.9312 0.131058 19.9312 0.292758V2.93165C19.9312 3.09335 20.0622 3.2244 20.2239 3.2244Z" fill="white"/>
<path d="M9.16043 12.1009C10.4585 12.8416 10.8258 14.0402 10.8294 14.0522C10.8659 14.177 10.9803 14.2628 11.1104 14.2628C11.2408 14.2628 11.3554 14.1766 11.3916 14.0513C11.3951 14.0394 11.7522 12.8474 13.0601 12.101C13.939 11.6007 14.4849 10.6786 14.4849 9.6946V8.56328C14.4849 8.47431 14.4445 8.3902 14.375 8.33463C14.3055 8.27913 14.2146 8.25817 14.1278 8.27772C14.0453 8.2963 13.964 8.31738 13.8833 8.33965C14.084 7.93126 14.1949 7.46741 14.1949 6.99114V5.85989C14.1949 5.76965 14.1533 5.68449 14.0822 5.62899C14.0111 5.57358 13.9184 5.55388 13.8308 5.57598C13.5743 5.64046 13.3292 5.72592 13.0968 5.83017C13.2003 5.34255 13.2217 4.83065 13.2217 4.49844V3.3672V1.22245C13.2217 1.06075 13.0906 0.929688 12.9289 0.929688C12.7672 0.929688 12.6362 1.06075 12.6362 1.22245V3.17503C11.8436 3.5483 11.3815 4.20857 11.125 4.73547C10.8686 4.20857 10.4065 3.54828 9.61395 3.17503V1.22245C9.61395 1.06075 9.48288 0.929688 9.3212 0.929688C9.15951 0.929688 9.02844 1.06075 9.02844 1.22245V3.3672V4.49844C9.02844 5.0202 9.06514 5.46619 9.13682 5.83587C8.90059 5.72904 8.65115 5.64163 8.38992 5.57599C8.30233 5.55391 8.20968 5.57353 8.13852 5.62901C8.06739 5.68451 8.02579 5.76966 8.02579 5.85991V6.99116C8.02579 7.46721 8.13633 7.93113 8.33684 8.33948C8.25635 8.31727 8.17524 8.29626 8.09296 8.27773C8.00621 8.25803 7.91522 8.27901 7.84577 8.33464C7.77628 8.39021 7.73584 8.47431 7.73584 8.5633V9.69462C7.73586 10.6786 8.28182 11.6007 9.16043 12.1009ZM10.8385 5.64812C10.8669 5.78375 10.9865 5.88088 11.125 5.88088C11.2636 5.88088 11.3832 5.78375 11.4116 5.64812C11.4144 5.63478 11.6719 4.45628 12.6361 3.84187V4.49845C12.6361 5.2446 12.5263 5.89919 12.3411 6.27115C11.7207 6.72864 11.3362 7.28295 11.1104 7.71139C10.8844 7.28278 10.4998 6.72824 9.87906 6.27072C9.75216 6.01245 9.61395 5.5011 9.61395 4.49844V3.84238C10.5727 4.45577 10.8358 5.63531 10.8385 5.64812ZM8.61132 6.254C8.85935 6.34237 9.09212 6.45419 9.30656 6.5881C9.3102 6.59065 9.31385 6.59305 9.31759 6.59537L9.31755 6.59544C10.4911 7.3326 10.8241 8.53514 10.8271 8.54637C10.8609 8.67518 10.9772 8.76505 11.1104 8.76505C11.2435 8.76505 11.3599 8.67518 11.3936 8.54637C11.3967 8.53439 11.7212 7.3379 12.9032 6.59544L12.9032 6.59537C12.907 6.59305 12.9107 6.59057 12.9143 6.58803C13.1288 6.45413 13.3615 6.34239 13.6094 6.25402V6.99118C13.6094 7.68371 13.3255 8.3405 12.8494 8.75392C11.9222 9.25847 11.3926 9.95808 11.1104 10.4612C10.8282 9.95811 10.2986 9.25847 9.37144 8.75395C8.89529 8.34052 8.61134 7.68375 8.61134 6.99118L8.61132 6.254ZM8.32136 8.94427C8.57728 9.02373 8.82099 9.12416 9.04925 9.24445C9.05357 9.24707 9.05795 9.24953 9.06243 9.25193L9.0624 9.252C10.4403 9.98707 10.8256 11.2451 10.8291 11.2569C10.8653 11.3822 10.9799 11.4684 11.1104 11.4684C11.2408 11.4684 11.3555 11.3822 11.3916 11.2569C11.3953 11.2443 11.77 9.99269 13.1584 9.252L13.1583 9.25193C13.1628 9.24953 13.1673 9.24707 13.1716 9.24445C13.3999 9.12418 13.6435 9.02366 13.8994 8.94427V9.69462C13.8994 10.4686 13.4668 11.1958 12.7702 11.5924C11.8916 12.0937 11.3845 12.7679 11.1104 13.2563C10.8362 12.7679 10.329 12.0936 9.45036 11.5922C8.75397 11.1958 8.32137 10.4686 8.32137 9.69464V8.94427H8.32136Z" fill="white"/>
<path d="M11.1101 3.2244C11.2718 3.2244 11.4029 3.09335 11.4029 2.93165V0.292758C11.4029 0.131075 11.2718 0 11.1101 0C10.9485 0 10.8174 0.131058 10.8174 0.292758V2.93165C10.8174 3.09335 10.9485 3.2244 11.1101 3.2244Z" fill="white"/>
<path d="M29.3372 3.2244C29.4989 3.2244 29.6299 3.09335 29.6299 2.93165V0.292758C29.6299 0.131075 29.4989 0 29.3372 0C29.1755 0 29.0444 0.131058 29.0444 0.292758V2.93165C29.0444 3.09335 29.1755 3.2244 29.3372 3.2244Z" fill="white"/>
<path d="M36.3556 14.6558C36.3 14.5879 36.2169 14.5486 36.1292 14.5486H31.1536C31.1519 14.5486 31.1504 14.5489 31.1487 14.5489C31.1459 14.549 31.143 14.5493 31.1401 14.5495C31.125 14.5502 31.1101 14.5521 31.0955 14.555C31.0928 14.5556 31.0901 14.556 31.0875 14.5566C31.0706 14.5605 31.0541 14.5658 31.0383 14.5726C31.0369 14.5732 31.0355 14.574 31.0341 14.5746C31.019 14.5814 31.0047 14.5894 30.991 14.5986C30.9893 14.5997 30.9875 14.6007 30.9858 14.6019C30.9712 14.6121 30.9576 14.6237 30.9451 14.6365C30.9438 14.6377 30.9428 14.639 30.9416 14.6403C30.9275 14.655 30.9146 14.671 30.9038 14.6887C30.9029 14.6901 30.9024 14.6915 30.9016 14.6928C30.3953 15.4923 29.9768 16.5384 29.6307 17.7225V14.0135C29.7028 13.805 30.1095 12.7728 31.2867 12.101C32.1655 11.6007 32.7115 10.6786 32.7115 9.69462V8.5633C32.7115 8.47433 32.671 8.39021 32.6016 8.33465C32.532 8.27915 32.4412 8.25819 32.3544 8.27773C32.2719 8.29631 32.1906 8.3174 32.1099 8.33963C32.3106 7.93125 32.4215 7.4674 32.4215 6.99116V5.85991C32.4215 5.76966 32.3799 5.68451 32.3087 5.62901C32.2376 5.5736 32.1449 5.55412 32.0574 5.576C31.8144 5.63707 31.5816 5.71697 31.3601 5.81378C31.4328 5.4069 31.4482 4.95053 31.4482 4.49845V3.36722V1.22245C31.4482 1.06075 31.3172 0.929688 31.1555 0.929688C30.9938 0.929688 30.8627 1.06075 30.8627 1.22245V3.17503C30.0701 3.5483 29.6081 4.20857 29.3516 4.73547C29.0951 4.20857 28.6331 3.54824 27.8405 3.17499V1.22245C27.8405 1.06075 27.7095 0.929688 27.5478 0.929688C27.3861 0.929688 27.255 1.06075 27.255 1.22245V3.3672V4.49844C27.255 4.92993 27.2553 5.39602 27.3225 5.81766C27.0984 5.71913 26.8627 5.63788 26.6165 5.57598C26.5289 5.55389 26.4362 5.57351 26.3651 5.62899C26.294 5.68449 26.2524 5.76965 26.2524 5.85989V6.99114C26.2524 7.46735 26.3632 7.93123 26.5639 8.33962C26.4832 8.31733 26.402 8.29628 26.3195 8.27772C26.2327 8.25817 26.1418 8.27915 26.0723 8.33463C26.0028 8.3902 25.9624 8.4743 25.9624 8.56328V9.6946C25.9624 10.6786 26.5084 11.6007 27.387 12.1009C28.565 12.7731 28.9764 13.8223 29.0451 14.0196V20.1678C27.9994 25.4967 27.9787 31.9364 27.9784 32.3145V37.2064C27.9784 37.21 27.9794 37.2134 27.9795 37.2169C27.9799 37.2273 27.9812 37.2374 27.9826 37.2475C27.9839 37.2567 27.9852 37.2659 27.9873 37.2748C27.9896 37.2843 27.9927 37.2933 27.9959 37.3024C27.999 37.3114 28.0021 37.3203 28.0061 37.3289C28.01 37.3373 28.0146 37.3452 28.0192 37.3531C28.0241 37.3614 28.0288 37.3696 28.0344 37.3773C28.0398 37.3848 28.0459 37.3917 28.052 37.3987C28.0582 37.4058 28.0644 37.4128 28.0712 37.4192C28.078 37.4256 28.0854 37.4313 28.0929 37.4371C28.1003 37.4428 28.1077 37.4486 28.1157 37.4536C28.1235 37.4585 28.1317 37.4626 28.14 37.4668C28.1489 37.4713 28.1576 37.4756 28.1669 37.4792C28.1753 37.4823 28.184 37.4847 28.1927 37.4872C28.2028 37.49 28.2128 37.4926 28.2233 37.4943C28.2268 37.4949 28.2299 37.4962 28.2334 37.4967C28.2459 37.4983 28.2583 37.4991 28.2705 37.4991C28.2708 37.4991 28.271 37.4992 28.2712 37.4992H28.2714H28.2716C28.2907 37.4992 28.3094 37.4971 28.3276 37.4935C28.3341 37.4922 28.3401 37.4899 28.3463 37.4882C28.3578 37.4852 28.3692 37.4821 28.3801 37.4777C28.3874 37.4748 28.3942 37.471 28.4012 37.4674C28.4104 37.4629 28.4195 37.4583 28.4282 37.4528C28.435 37.4485 28.4413 37.4435 28.4477 37.4386C28.4557 37.4325 28.4635 37.4264 28.4709 37.4195C28.4767 37.414 28.482 37.4082 28.4874 37.4023C28.4942 37.3948 28.5007 37.3871 28.5067 37.3788C28.5115 37.3724 28.5158 37.3657 28.52 37.3589C28.5253 37.3503 28.5301 37.3415 28.5345 37.3323C28.5381 37.3247 28.5414 37.3172 28.5444 37.3092C28.5479 37.3 28.5507 37.2905 28.5532 37.2808C28.5555 37.2722 28.5576 37.2638 28.5591 37.2549C28.5597 37.2513 28.561 37.2479 28.5615 37.2442C28.5801 37.1011 30.4028 23.3281 33.2238 19.5188L34.4734 21.955C34.524 22.0536 34.6252 22.1141 34.7338 22.1141C34.7472 22.1141 34.7607 22.1132 34.7743 22.1113C34.8976 22.0941 34.9966 22.0009 35.021 21.8787L36.4162 14.8986C36.4334 14.8127 36.4112 14.7235 36.3556 14.6558ZM29.0651 5.64812C29.0934 5.78351 29.2127 5.88021 29.351 5.88058H29.3517C29.4897 5.88058 29.6091 5.78374 29.638 5.64871C29.6409 5.63537 29.904 4.45575 30.8627 3.8424V4.49845C30.8627 5.12227 30.834 5.80922 30.6307 6.22562C29.9731 6.69138 29.5703 7.26861 29.337 7.71141C29.1036 7.26869 28.7009 6.6916 28.0435 6.22589C27.8411 5.80463 27.8405 5.08341 27.8405 4.49847V3.8425C28.7992 4.45577 29.0624 5.63531 29.0651 5.64812ZM26.8379 6.254C27.0859 6.34237 27.3187 6.45419 27.5331 6.5881C27.5367 6.59057 27.5404 6.59305 27.5441 6.59537L27.5441 6.59544C28.7177 7.3326 29.0507 8.53514 29.0537 8.54637C29.0874 8.67489 29.2034 8.7643 29.3362 8.76467H29.3371C29.4695 8.76467 29.5857 8.67525 29.62 8.54718C29.6232 8.53512 29.9562 7.33258 31.1297 6.59542L31.1297 6.59535C31.1335 6.59304 31.1371 6.59064 31.1407 6.58809C31.3552 6.45419 31.588 6.34237 31.836 6.25398V6.99114C31.836 7.68368 31.552 8.34047 31.0759 8.75389C30.1488 9.25843 29.6191 9.95808 29.3369 10.4612C29.0548 9.95803 28.5251 9.25843 27.5979 8.75389C27.1218 8.34048 26.8378 7.68368 26.8378 6.99114V6.254H26.8379ZM27.6769 11.5922C26.9805 11.1958 26.5479 10.4686 26.5479 9.69462V8.94427C26.8038 9.02373 27.0476 9.12416 27.2758 9.24445C27.2801 9.24707 27.2845 9.24954 27.289 9.25193L27.289 9.252C28.6669 9.98707 29.0522 11.2451 29.0557 11.2569C29.0918 11.3818 29.2061 11.4675 29.3361 11.468H29.3371C29.4667 11.468 29.5812 11.3822 29.6179 11.2578C29.6217 11.2451 30.007 9.98707 31.3849 9.25202L31.3849 9.25195C31.3894 9.24955 31.3938 9.247 31.3982 9.24438C31.6265 9.12411 31.8701 9.02367 32.1259 8.94429V9.69464C32.1259 10.4686 31.6933 11.1958 30.9967 11.5924C30.1182 12.0937 29.611 12.7679 29.3369 13.2564C29.0628 12.7679 28.5556 12.0936 27.6769 11.5922ZM28.564 33.3586V32.3147C28.564 32.1902 28.6019 20.2154 31.138 15.4525L32.9296 18.9452C30.8613 21.4434 29.3415 28.7861 28.564 33.3586ZM34.6114 20.9411L31.6327 15.1341H35.7721L34.6114 20.9411Z" fill="white"/>
</svg>
