<svg width="88" height="88" viewBox="0 0 88 88" fill="none" xmlns="http://www.w3.org/2000/svg">
<path d="M80.6667 0H7.33333C3.28973 0 0 3.28973 0 7.33333V60.1333C0 64.1769 3.28973 67.4667 7.33333 67.4667H33.2288L29.7088 79.2H23.4667C22.6556 79.2 22 79.8571 22 80.6667C22 84.7103 25.2897 88 29.3333 88H58.6667C62.7103 88 66 84.7103 66 80.6667C66 79.8571 65.3444 79.2 64.5333 79.2H58.2912L54.7712 67.4667H80.6667C84.7103 67.4667 88 64.1769 88 60.1333V7.33333C88 3.28973 84.7103 0 80.6667 0ZM7.33333 2.93333H80.6667C83.0925 2.93333 85.0667 4.90747 85.0667 7.33333V52.8H2.93333V35.2H24.9333V36.6667C24.9333 39.0925 26.9075 41.0667 29.3333 41.0667H57.3173C58.0331 46.0343 62.3055 49.8667 67.4667 49.8667C73.1265 49.8667 77.7333 45.2613 77.7333 39.6C77.7333 34.4388 73.8995 30.1664 68.9333 29.4507V16.1333C68.9333 13.7075 66.9592 11.7333 64.5333 11.7333H38.4795L27.0556 6.02067C26.7271 5.85787 26.3501 5.81973 25.9967 5.9224L15.928 8.8H2.93333V7.33333C2.93333 4.90747 4.90747 2.93333 7.33333 2.93333ZM57.3173 38.1333H29.3333C28.5237 38.1333 27.8667 37.4748 27.8667 36.6667V35.2H33C35.8307 35.2 38.1333 32.8973 38.1333 30.0667C38.1333 29.2761 37.9383 28.5355 37.6185 27.8667H66V29.4507C61.5135 30.0975 57.9641 33.6468 57.3173 38.1333ZM27.8667 22H66V24.9333H27.8667V22ZM67.4667 32.2667C71.5103 32.2667 74.8 35.5564 74.8 39.6C74.8 43.6436 71.5103 46.9333 67.4667 46.9333C63.4231 46.9333 60.1333 43.6436 60.1333 39.6C60.1333 35.5564 63.4231 32.2667 67.4667 32.2667ZM66 19.0667H27.8667V16.1333C27.8667 15.3252 28.5237 14.6667 29.3333 14.6667H64.5333C65.3429 14.6667 66 15.3252 66 16.1333V19.0667ZM29.3333 11.7333C26.9075 11.7333 24.9333 13.7075 24.9333 16.1333V24.9333H22V27.8667H26.4H33C34.2129 27.8667 35.2 28.8537 35.2 30.0667C35.2 31.2796 34.2129 32.2667 33 32.2667H2.93333V11.7333H16.1333C16.2697 11.7333 16.4061 11.7143 16.5352 11.6761L26.2533 8.89973L31.9205 11.7333H29.3333ZM58.6667 85.0667H29.3333C27.4208 85.0667 25.7899 83.8405 25.1841 82.1333H62.8159C62.2101 83.8405 60.5792 85.0667 58.6667 85.0667ZM55.2288 79.2H32.7712L36.2912 67.4667H51.7088L55.2288 79.2ZM80.6667 64.5333H7.33333C4.90747 64.5333 2.93333 62.5592 2.93333 60.1333V55.7333H85.0667V60.1333C85.0667 62.5592 83.0925 64.5333 80.6667 64.5333Z" fill="#1D69E7"/>
<path d="M66.0163 43C66.3961 43 66.776 42.8798 67.0653 42.6406L73 37.7344L70.9021 36L66.0163 40.0391L64.0979 38.4531L62 40.1875L64.9674 42.6406C65.2567 42.8798 65.6365 43 66.0163 43Z" fill="#1D69E7"/>
<path d="M39 30H43V34H39V30Z" fill="#1D69E7"/>
<path d="M45 30H49V34H45V30Z" fill="#1D69E7"/>
<path d="M51 30H54V34H51V30Z" fill="#1D69E7"/>
</svg>
