<svg width="34" height="35" viewBox="0 0 34 35" fill="none" xmlns="http://www.w3.org/2000/svg">
<path d="M25.8942 0H2.87713C1.28895 0.00187013 0.00187015 1.28895 1.74784e-08 2.87713V21.2908C-0.000143839 22.6031 0.887738 23.7491 2.15842 24.077L2.44614 22.9629C1.68348 22.7663 1.15056 22.0784 1.15085 21.2908V2.87713C1.15085 1.92372 1.92372 1.15085 2.87713 1.15085H25.8942C26.8476 1.15085 27.6204 1.92372 27.6204 2.87713V3.45256H28.7713V2.87713C28.7694 1.28895 27.4823 0.00187013 25.8942 0Z" fill="#1D69E7"/>
<path d="M3.45261 2.30176H2.30176V3.45261H3.45261V2.30176Z" fill="#1D69E7"/>
<path d="M5.75437 2.30176H4.60352V3.45261H5.75437V2.30176Z" fill="#1D69E7"/>
<path d="M8.05613 2.30176H6.90527V3.45261H8.05613V2.30176Z" fill="#1D69E7"/>
<path d="M33.7812 31.8167L28.3233 26.3588C28.61 25.8471 28.8393 25.3052 29.0069 24.743H29.9218V23.5922H29.2543C29.471 22.1993 29.3039 20.7737 28.7709 19.4687V13.8099H27.6201V17.4743C27.2784 17.0377 26.8927 16.6374 26.4692 16.2797V11.5082H25.3184V15.4752C24.95 15.2617 24.5652 15.078 24.1675 14.9257V9.20654H23.0167V14.5764C22.6375 14.4946 22.2529 14.4405 21.8658 14.4147V10.3574H20.715V14.4147C20.3279 14.4405 19.9433 14.4946 19.5641 14.5764V12.6591H18.4133V14.9257C18.0157 15.078 17.6308 15.2617 17.2624 15.4752V12.0837H16.1116V16.2797C15.6881 16.6374 15.3025 17.0377 14.9607 17.4743V13.2345H13.8099V19.4687C13.2769 20.7737 13.1098 22.1993 13.3265 23.5922H5.75391V24.743H13.5739C14.836 28.9999 19.3099 31.4276 23.5667 30.1656C24.4055 29.9168 25.1982 29.5329 25.9134 29.0288L31.2412 34.3567C31.4659 34.5813 31.8302 34.5813 32.0549 34.3567L33.7812 32.6304C34.0058 32.4057 34.0058 32.0415 33.7812 31.8167ZM21.2904 29.3464C17.4785 29.3423 14.3894 26.2532 14.3853 22.4413C14.3853 18.6278 17.4768 15.5362 21.2904 15.5362C25.104 15.5362 28.1955 18.6278 28.1955 22.4413C28.1955 26.2549 25.104 29.3464 21.2904 29.3464ZM31.6481 33.1362L26.8076 28.2957C27.1212 27.9994 27.4108 27.6786 27.6736 27.3365L32.5607 32.2236L31.6481 33.1362Z" fill="#1D69E7"/>
<path d="M21.2904 16.6875C18.1124 16.6875 15.5361 19.2638 15.5361 22.4418C15.5361 25.6198 18.1124 28.196 21.2904 28.196C24.4684 28.196 27.0447 25.6198 27.0447 22.4418C27.0412 19.2652 24.467 16.691 21.2904 16.6875ZM21.2904 27.0452C19.6478 27.0431 18.1309 26.1659 17.3096 24.7435H25.2712C24.4499 26.1659 22.9329 27.0431 21.2904 27.0452ZM16.8383 23.5926C16.3753 21.8404 16.9935 19.9804 18.4133 18.854V22.4418H19.5641V18.1773C19.9331 18.028 20.32 17.9274 20.715 17.8781V22.4418H21.8658V17.8781C22.2608 17.9274 22.6477 18.028 23.0167 18.1773V22.4418H24.1675V18.854C25.5872 19.9804 26.2055 21.8404 25.7425 23.5926H16.8383Z" fill="#1D69E7"/>
<path d="M29.3463 4.60352H6.32928C4.7411 4.60539 3.45402 5.89247 3.45215 7.48064V25.8943C3.45402 27.4824 4.7411 28.7695 6.32928 28.7714H13.8098V27.6205H6.32928C5.37587 27.6205 4.603 26.8477 4.603 25.8943V7.48064C4.603 6.52724 5.37587 5.75437 6.32928 5.75437H29.3463C30.2997 5.75437 31.0726 6.52724 31.0726 7.48064V25.8943C31.0725 26.3147 30.9191 26.7206 30.641 27.0359L31.5042 27.7972C31.968 27.2718 32.2237 26.5951 32.2234 25.8943V7.48064C32.2216 5.89247 30.9345 4.60539 29.3463 4.60352Z" fill="#1D69E7"/>
<path d="M6.90476 6.90527H5.75391V8.05613H6.90476V6.90527Z" fill="#1D69E7"/>
<path d="M9.20652 6.90527H8.05566V8.05613H9.20652V6.90527Z" fill="#1D69E7"/>
<path d="M11.5083 6.90527H10.3574V8.05613H11.5083V6.90527Z" fill="#1D69E7"/>
<path d="M8.05613 18.9893H6.90527V22.4418H8.05613V18.9893Z" fill="#1D69E7"/>
<path d="M10.3579 15.5366H9.20703V22.4417H10.3579V15.5366Z" fill="#1D69E7"/>
<path d="M12.6596 17.2627H11.5088V22.4415H12.6596V17.2627Z" fill="#1D69E7"/>
</svg>
