<svg width="38" height="38" viewBox="0 0 38 38" fill="none" xmlns="http://www.w3.org/2000/svg">
<path d="M37.6902 36.8238L30.4854 26.6173V15.2262H32.3145C32.4257 15.2262 32.5348 15.1957 32.63 15.1381C32.7251 15.0805 32.8027 14.998 32.8543 14.8995C32.906 14.8009 32.9296 14.6902 32.9228 14.5791C32.916 14.4681 32.8789 14.3611 32.8156 14.2696L27.3283 6.34345C27.2692 6.26678 27.1933 6.20469 27.1064 6.16197C27.0195 6.11925 26.924 6.09704 26.8271 6.09704C26.7303 6.09704 26.6348 6.11925 26.5479 6.16197C26.461 6.20469 26.3851 6.26678 26.326 6.34345L24.9614 8.31402C24.9439 8.26387 24.9197 8.21629 24.8895 8.17257L19.4022 0.246415C19.343 0.169741 19.2671 0.107655 19.1802 0.0649349C19.0933 0.0222149 18.9978 0 18.901 0C18.8042 0 18.7086 0.0222149 18.6217 0.0649349C18.5349 0.107655 18.4589 0.169741 18.3998 0.246415L12.9125 8.17257C12.8823 8.21629 12.8581 8.26387 12.8405 8.31402L11.476 6.34345C11.4169 6.26678 11.341 6.20469 11.2541 6.16197C11.1672 6.11925 11.0716 6.09704 10.9748 6.09704C10.878 6.09704 10.7825 6.11925 10.6956 6.16197C10.6087 6.20469 10.5328 6.26678 10.4736 6.34345L4.98632 14.2696C4.92302 14.3611 4.88596 14.4681 4.87914 14.5791C4.87232 14.6902 4.896 14.8009 4.94762 14.8995C4.99924 14.998 5.07683 15.0805 5.17199 15.1381C5.26716 15.1957 5.37626 15.2262 5.48749 15.2262H7.3166V26.6173L0.111732 36.8238C0.0472411 36.9151 0.00908415 37.0223 0.00143114 37.1338C-0.00622187 37.2453 0.0169236 37.3568 0.068338 37.456C0.119752 37.5553 0.197457 37.6385 0.292961 37.6965C0.388464 37.7546 0.498091 37.7853 0.60986 37.7853H37.1921C37.3039 37.7853 37.4135 37.7546 37.509 37.6965C37.6045 37.6385 37.6822 37.5553 37.7336 37.456C37.785 37.3568 37.8082 37.2453 37.8005 37.1338C37.7929 37.0223 37.7547 36.9151 37.6902 36.8238ZM13.4136 9.12919H15.2428V10.3486H16.4622V8.51949C16.4622 8.35778 16.3979 8.2027 16.2836 8.08836C16.1692 7.97402 16.0142 7.90978 15.8525 7.90978H14.5776L18.901 1.66459L23.2244 7.90978H21.9495C21.7878 7.90978 21.6327 7.97402 21.5184 8.08836C21.404 8.2027 21.3398 8.35778 21.3398 8.51949V10.3486H22.5592V9.12919H24.3883H24.3981L22.3251 12.1228C22.066 11.4235 21.599 10.8202 20.9868 10.3942C20.3747 9.9682 19.6468 9.73984 18.901 9.73984C18.1552 9.73984 17.4273 9.9682 16.8151 10.3942C16.203 10.8202 15.736 11.4235 15.4769 12.1228L13.4039 9.12919H13.4136ZM23.1689 17.0712C22.6443 16.6677 22.0016 16.4479 21.3398 16.4456H20.9191C21.3892 16.1324 21.781 15.7151 22.0641 15.2262H23.1689V17.0712ZM21.3398 20.1039V32.9076H19.5107V25.5912H18.2913V32.9076H16.4622C16.4622 31.0657 16.4622 25.6759 16.4622 25.5949V20.1039H15.2428V24.9815H14.6331V19.4942C14.6331 19.009 14.8258 18.5438 15.1688 18.2008C15.5118 17.8578 15.9771 17.665 16.4622 17.665H21.3398C21.8249 17.665 22.2901 17.8578 22.6332 18.2008C22.9762 18.5438 23.1689 19.009 23.1689 19.4942V24.9815H22.5592V20.1039H21.3398ZM16.8829 16.4456H16.4622C15.8003 16.4479 15.1576 16.6677 14.6331 17.0712V15.2262H15.7378C16.0209 15.7151 16.4127 16.1324 16.8829 16.4456ZM18.901 15.8359C18.4186 15.8359 17.9471 15.6929 17.546 15.4249C17.145 15.1569 16.8324 14.776 16.6478 14.3304C16.4632 13.8848 16.4149 13.3944 16.509 12.9213C16.6031 12.4482 16.8354 12.0137 17.1765 11.6726C17.5175 11.3315 17.9521 11.0993 18.4252 11.0052C18.8983 10.9111 19.3886 10.9594 19.8343 11.1439C20.2799 11.3285 20.6608 11.6411 20.9288 12.0422C21.1968 12.4432 21.3398 12.9148 21.3398 13.3971C21.3398 14.0439 21.0828 14.6643 20.6255 15.1216C20.1681 15.579 19.5478 15.8359 18.901 15.8359ZM27.2844 36.5659L24.3633 26.6387L23.1939 26.9825L26.0132 36.5659H11.7888L14.6081 26.9825L13.4386 26.6387L10.5175 36.5659H1.78659L8.42444 27.1624C8.49708 27.0595 8.53606 26.9366 8.53601 26.8106V14.6165C8.53601 14.4548 8.47178 14.2997 8.35743 14.1854C8.24309 14.0711 8.08801 14.0068 7.92631 14.0068H6.65142L10.9748 7.76163L15.2976 14.0068H14.0233C13.8616 14.0068 13.7066 14.0711 13.5922 14.1854C13.4779 14.2997 13.4136 14.4548 13.4136 14.6165V25.5912C13.4136 25.7529 13.4779 25.908 13.5922 26.0223C13.7066 26.1367 13.8616 26.2009 14.0233 26.2009H15.2428C15.2428 26.3838 15.2428 26.5905 15.2428 26.8295V33.5173C15.2428 33.6791 15.307 33.8341 15.4213 33.9485C15.5357 34.0628 15.6908 34.1271 15.8525 34.1271H21.9495C22.1112 34.1271 22.2663 34.0628 22.3806 33.9485C22.495 33.8341 22.5592 33.6791 22.5592 33.5173V26.2009H23.7786C23.9403 26.2009 24.0954 26.1367 24.2097 26.0223C24.3241 25.908 24.3883 25.7529 24.3883 25.5912V19.4942C24.3883 19.4454 24.3761 19.4003 24.3737 19.3521H24.3883V14.6165C24.3883 14.4548 24.3241 14.2997 24.2097 14.1854C24.0954 14.0711 23.9403 14.0068 23.7786 14.0068H22.5043L26.8271 7.76163L31.1505 14.0068H29.8757C29.7139 14.0068 29.5589 14.0711 29.4445 14.1854C29.3302 14.2997 29.2659 14.4548 29.2659 14.6165V26.8106C29.2659 26.9366 29.3049 27.0595 29.3775 27.1624L36.0154 36.5659H27.2844Z" fill="#1D69E7"/>
</svg>
