<svg width="87" height="87" viewBox="0 0 87 87" fill="none" xmlns="http://www.w3.org/2000/svg">
<mask id="mask0_3_1440" style="mask-type:luminance" maskUnits="userSpaceOnUse" x="0" y="0" width="87" height="87">
<path d="M87 0H0V87H87V0Z" fill="white"/>
</mask>
<g mask="url(#mask0_3_1440)">
<mask id="mask1_3_1440" style="mask-type:luminance" maskUnits="userSpaceOnUse" x="0" y="0" width="87" height="87">
<path d="M0 7.62939e-06H87V87H0V7.62939e-06Z" fill="white"/>
</mask>
<g mask="url(#mask1_3_1440)">
<path d="M6.59518 49.9873H11.4352C14.2746 49.9873 16.5978 52.3107 16.5978 55.1501V77.76C16.5978 80.5994 14.2746 82.9226 11.4352 82.9226H6.59518C3.75579 82.9226 1.43262 80.5994 1.43262 77.76V55.1501C1.43262 52.3107 3.75579 49.9873 6.59518 49.9873Z" stroke="#1D69E7" stroke-width="3" stroke-miterlimit="10" stroke-linecap="round" stroke-linejoin="round" stroke-dasharray="480 40"/>
<path d="M35.1046 63.9727L43.536 72.4058C44.3426 73.2107 45.3987 73.6147 46.4546 73.6147C47.5329 73.6147 48.6112 73.1935 49.4221 72.3544C50.9973 70.7245 50.9086 68.1067 49.3059 66.504L46.7745 63.9727L39.9472 57.1452C39.0337 56.2317 37.7948 55.7187 36.5029 55.7187H29.3789H14.1178C12.9825 55.7187 12.0537 56.6475 12.0537 57.7826V61.9088" stroke="#1D69E7" stroke-width="3" stroke-miterlimit="10" stroke-linecap="round" stroke-linejoin="round"/>
<path d="M16.5911 73.9897L22.3973 74.9922C25.051 75.4507 27.6258 76.284 30.0446 77.4675L39.7873 82.2341C40.5247 82.5951 41.2386 83.002 41.9286 83.4467C45.7811 85.9296 50.7613 85.9724 54.6758 83.481L83.8099 68.7092C84.8954 68.0185 85.5528 66.821 85.5528 65.5344C85.5528 63.2586 83.5483 61.5037 81.2924 61.8044L50.7523 69.492" stroke="#1D69E7" stroke-width="3" stroke-miterlimit="10" stroke-linecap="round" stroke-linejoin="round" stroke-dasharray="533.33 40"/>
<path d="M12.0684 74.7896C12.0684 76.4758 10.7015 77.8428 9.01524 77.8428C7.32894 77.8428 5.96191 76.4758 5.96191 74.7896C5.96191 73.1033 7.32894 71.7363 9.01524 71.7363C10.7015 71.7363 12.0684 73.1033 12.0684 74.7896Z" stroke="#1D69E7" stroke-width="3" stroke-miterlimit="10" stroke-linecap="round" stroke-linejoin="round" stroke-dasharray="82.67 40"/>
<path d="M57.9315 1.66411L51.9222 2.72358C51.2039 2.85034 50.7242 3.53546 50.851 4.25372L52.1545 11.6472C50.9482 12.1811 49.8106 12.8414 48.7582 13.6118L43.0045 8.78384C42.4458 8.31503 41.6127 8.38775 41.1439 8.94662L37.2216 13.621C36.7526 14.1797 36.8256 15.013 37.3843 15.4817L43.1357 20.3078C42.5625 21.4726 42.1099 22.7072 41.7935 23.9956H34.2855C33.5562 23.9956 32.9648 24.5867 32.9648 25.3162V31.4181C32.9648 32.1476 33.5562 32.7391 34.2855 32.7391H41.7935C42.1099 34.0274 42.5625 35.2621 43.1357 36.4267L37.3843 41.2527C36.8256 41.7217 36.7526 42.5548 37.2216 43.1137L41.1439 47.7879C41.6127 48.3466 42.4458 48.4195 43.0045 47.9507L48.7582 43.1227C49.8106 43.8933 50.9482 44.5536 52.1545 45.0875L50.851 52.4809C50.7242 53.1992 51.2039 53.8842 51.9222 54.0108L57.9315 55.0706C58.6499 55.1971 59.3348 54.7175 59.4614 53.999L60.7659 46.6015C62.0981 46.5133 63.3916 46.2831 64.6306 45.9247L68.384 52.4257C68.7489 53.0575 69.5567 53.274 70.1883 52.9093L75.4727 49.8582C76.1044 49.4936 76.3209 48.6859 75.9561 48.0541L72.2003 41.5489C73.1442 40.6423 73.9909 39.6354 74.7233 38.5451L81.78 41.1135C82.4655 41.3631 83.2233 41.0097 83.4728 40.3242L85.5597 34.5902C85.8092 33.9048 85.4557 33.1467 84.7705 32.8975L77.7131 30.3286C77.7817 29.6842 77.8179 29.03 77.8179 28.3672C77.8179 27.7045 77.7817 27.0503 77.7131 26.4058L84.7705 23.837C85.4557 23.5876 85.8092 22.8299 85.5597 22.1443L83.4728 16.4104C83.2233 15.725 82.4655 15.3715 81.78 15.621L74.7233 18.1894C73.9909 17.0991 73.1442 16.0924 72.2003 15.1856L75.9561 8.68053C76.3209 8.04876 76.1044 7.24095 75.4727 6.8763L70.1883 3.82535C69.5567 3.46052 68.7489 3.67701 68.384 4.30861L64.6306 10.81C63.3916 10.4515 62.0981 10.221 60.7659 10.133L59.4614 2.73547C59.3348 2.01704 58.6499 1.53752 57.9315 1.66411Z" stroke="#1D69E7" stroke-width="3" stroke-miterlimit="10" stroke-linecap="round" stroke-linejoin="round"/>
<path d="M70.3866 20.9748L55.916 35.4454C55.497 35.8646 54.8175 35.8646 54.3985 35.4454L48.2179 29.2648" stroke="#1D69E7" stroke-width="3" stroke-miterlimit="10" stroke-linecap="round" stroke-linejoin="round" stroke-dasharray="893.33 40"/>
</g>
</g>
</svg>
