<svg width="39" height="39" viewBox="0 0 39 39" fill="none" xmlns="http://www.w3.org/2000/svg">
<path d="M6.67787 31.7495C6.52676 31.7495 6.37946 31.8106 6.27337 31.9174C6.16652 32.0235 6.10547 32.1716 6.10547 32.3219C6.10547 32.4723 6.16652 32.6203 6.27337 32.7264C6.37946 32.8333 6.52676 32.8943 6.67787 32.8943C6.82822 32.8943 6.97628 32.8333 7.08237 32.7264C7.18922 32.6203 7.25027 32.4723 7.25027 32.3219C7.25027 32.1716 7.18922 32.0235 7.08237 31.9174C6.97628 31.8106 6.82822 31.7495 6.67787 31.7495Z" fill="#1D69E7"/>
<path d="M38.0225 25.8113L33.5676 30.2663C33.204 30.0451 32.7774 29.9176 32.3217 29.9176C31.8457 29.9176 31.402 30.0572 31.0282 30.2968C31.0006 30.2196 30.9565 30.1471 30.8948 30.0853L24.7891 23.9797C24.761 23.9515 24.7306 23.9269 24.6986 23.9059L25.1043 17.009C25.2126 16.9881 25.3159 16.9356 25.3997 16.8518L33.337 8.9145C33.3667 8.88481 33.3922 8.85253 33.4139 8.81857C33.4662 8.79178 33.5177 8.76377 33.5676 8.73339L38.0225 13.1884C38.1343 13.3001 38.2808 13.356 38.4273 13.356C38.5737 13.356 38.7203 13.3002 38.832 13.1884C39.0555 12.9648 39.0555 12.6025 38.832 12.3789L34.377 7.92394C34.5983 7.56035 34.7257 7.1338 34.7257 6.67801C34.7257 5.3524 33.6473 4.27392 32.3217 4.27392C31.8659 4.27392 31.4393 4.40145 31.0757 4.62263L26.6208 0.167657C26.3973 -0.0558856 26.0348 -0.0558856 25.8114 0.167657C25.5878 0.391199 25.5878 0.753568 25.8114 0.97711L30.2663 5.43208C30.0451 5.79567 29.9176 6.22223 29.9176 6.67801C29.9176 6.77937 29.9246 6.87904 29.9368 6.97711L24.2049 10.9894C24.0482 10.7683 23.8759 10.5557 23.6861 10.3544C22.5877 9.18941 21.101 8.54786 19.4998 8.54786C17.8987 8.54786 16.412 9.18941 15.3136 10.3544C15.1238 10.5557 14.9514 10.7682 14.7948 10.9894L9.06287 6.97711C9.07508 6.87904 9.0821 6.77937 9.0821 6.67801C9.0821 6.22223 8.95457 5.79567 8.73339 5.43208L13.1884 0.97711C13.4119 0.753568 13.4119 0.391199 13.1884 0.167657C12.9648 -0.0558856 12.6024 -0.0558856 12.3789 0.167657L7.92394 4.62263C7.56035 4.40145 7.1338 4.27392 6.67801 4.27392C5.3524 4.27392 4.27392 5.3524 4.27392 6.67801C4.27392 7.1338 4.40145 7.56035 4.62263 7.92394L0.167657 12.3789C-0.0558856 12.6025 -0.0558856 12.9648 0.167657 13.1884C0.27939 13.3002 0.425925 13.356 0.572384 13.356C0.718842 13.356 0.865377 13.3002 0.97711 13.1884L5.43208 8.73339C5.482 8.76377 5.53351 8.79178 5.58571 8.81857C5.60754 8.85253 5.63296 8.88481 5.66265 8.9145L13.6 16.8518C13.6838 16.9356 13.7871 16.9881 13.8953 17.009L14.301 23.9059C14.2691 23.9269 14.2387 23.9515 14.2105 23.9797L8.1049 30.0853C8.04308 30.1471 7.99904 30.2197 7.97141 30.2968C7.59767 30.0572 7.15402 29.9176 6.67801 29.9176C6.22223 29.9176 5.79567 30.0451 5.43208 30.2663L0.97711 25.8113C0.753568 25.5878 0.391123 25.5878 0.167657 25.8113C-0.0558856 26.0348 -0.0558856 26.3973 0.167657 26.6207L4.62263 31.0757C4.40145 31.4393 4.27392 31.8659 4.27392 32.3217C4.27392 33.6473 5.3524 34.7257 6.67801 34.7257C7.1338 34.7257 7.56035 34.5983 7.92394 34.3771L12.3789 38.8321C12.4906 38.9439 12.6372 38.9998 12.7836 38.9998C12.9301 38.9998 13.0766 38.9439 13.1884 38.8321C13.4119 38.6085 13.4119 38.2461 13.1884 38.0226L8.84788 33.6821L15.8274 29.9239C16.313 30.257 16.8994 30.4518 17.5287 30.4518H21.471C22.1002 30.4518 22.6867 30.257 23.1723 29.9239L30.1518 33.6821L25.8113 38.0226C25.5878 38.2462 25.5878 38.6086 25.8113 38.8321C25.923 38.9439 26.0696 38.9998 26.216 38.9998C26.3625 38.9998 26.509 38.9439 26.6207 38.8321L31.0757 34.3771C31.4393 34.5983 31.8659 34.7257 32.3217 34.7257C33.6473 34.7257 34.7257 33.6473 34.7257 32.3217C34.7257 31.8659 34.5982 31.4393 34.377 31.0758L38.832 26.6208C39.0555 26.3973 39.0555 26.0348 38.832 25.8114C38.6085 25.5878 38.2461 25.5878 38.0225 25.8113ZM30.0852 30.8948C30.1471 30.9566 30.2196 31.0006 30.2968 31.0282C30.0682 31.3849 29.9313 31.8053 29.9192 32.2566L24.0032 29.0711C24.2773 28.6476 24.4489 28.1507 24.4805 27.6143L24.6096 25.4192L30.0852 30.8948ZM32.3217 5.41873C33.016 5.41873 33.5809 5.98365 33.5809 6.67801C33.5809 7.37245 33.016 7.9373 32.3217 7.9373C31.6273 7.9373 31.0624 7.37245 31.0624 6.67801C31.0624 5.98365 31.6273 5.41873 32.3217 5.41873ZM30.3662 8.07391C30.6759 8.50642 31.1249 8.83223 31.6474 8.98518L25.1969 15.4356L25.2438 14.6394C25.2983 13.712 25.1336 12.8109 24.7723 11.9898L30.3662 8.07391ZM16.1465 11.1398C16.2548 11.0249 16.368 10.9165 16.4853 10.8146V12.1729C16.4853 12.489 16.7415 12.7453 17.0577 12.7453C17.3738 12.7453 17.6301 12.489 17.6301 12.1729V10.3414C17.6301 10.2585 17.612 10.1799 17.5804 10.1088C18.1734 9.83691 18.8236 9.69267 19.4998 9.69267C20.1761 9.69267 20.8263 9.83691 21.4194 10.1088C21.3876 10.1799 21.3697 10.2585 21.3697 10.3414V12.1729C21.3697 12.489 21.626 12.7453 21.9421 12.7453C22.2582 12.7453 22.5145 12.489 22.5145 12.1729V10.8146C22.6318 10.9165 22.7449 11.0249 22.8532 11.1398C23.7331 12.0729 24.1761 13.2919 24.1008 14.5723L23.3376 27.547C23.3022 28.1493 22.9826 28.6716 22.5145 28.9875V14.6153C22.5145 14.2992 22.2582 14.0429 21.9421 14.0429C21.626 14.0429 21.3697 14.2992 21.3697 14.6153V29.2688C21.3697 29.2817 21.3707 29.2943 21.3716 29.307H17.6281C17.6289 29.2943 17.63 29.2817 17.63 29.2688V14.6153C17.63 14.2992 17.3737 14.0429 17.0576 14.0429C16.7415 14.0429 16.4852 14.2992 16.4852 14.6153V28.9875C16.017 28.6716 15.6976 28.1493 15.6621 27.547L14.8989 14.5723C14.8235 13.2919 15.2666 12.0729 16.1465 11.1398ZM6.67801 5.41873C7.37237 5.41873 7.9373 5.98365 7.9373 6.67801C7.9373 7.37245 7.37237 7.9373 6.67801 7.9373C5.98365 7.9373 5.41873 7.37245 5.41873 6.67801C5.41873 5.98365 5.98365 5.41873 6.67801 5.41873ZM7.35238 8.98518C7.87487 8.83223 8.32386 8.50642 8.63349 8.07391L14.2275 11.9898C13.8662 12.8109 13.7015 13.712 13.756 14.6394L13.8029 15.4356L7.35238 8.98518ZM14.3902 25.4191L14.5193 27.6142C14.5509 28.1506 14.7225 28.6476 14.9965 29.071L9.0805 32.2565C9.06844 31.8053 8.93152 31.3848 8.70294 31.0282C8.7801 31.0005 8.85268 30.9565 8.9145 30.8947L14.3902 25.4191ZM6.67801 33.5809C5.98365 33.5809 5.41873 33.0161 5.41873 32.3217C5.41873 31.6273 5.98365 31.0624 6.67801 31.0624C7.37237 31.0624 7.9373 31.6273 7.9373 32.3217C7.9373 33.0161 7.37237 33.5809 6.67801 33.5809ZM32.3217 33.5809C31.6273 33.5809 31.0624 33.0161 31.0624 32.3217C31.0624 31.6273 31.6273 31.0624 32.3217 31.0624C33.016 31.0624 33.5809 31.6273 33.5809 32.3217C33.5809 33.0161 33.016 33.5809 32.3217 33.5809Z" fill="#1D69E7"/>
<path d="M32.3214 31.7495C32.1711 31.7495 32.023 31.8106 31.9169 31.9174C31.8101 32.0235 31.749 32.1716 31.749 32.3219C31.749 32.4723 31.8101 32.6203 31.9169 32.7264C32.023 32.8333 32.1711 32.8943 32.3214 32.8943C32.4718 32.8943 32.6198 32.8333 32.7259 32.7264C32.8328 32.6203 32.8938 32.4723 32.8938 32.3219C32.8938 32.1716 32.8328 32.0235 32.7259 31.9174C32.6198 31.8106 32.4718 31.7495 32.3214 31.7495Z" fill="#1D69E7"/>
<path d="M32.3214 7.25027C32.4718 7.25027 32.6198 7.18922 32.7259 7.08237C32.8328 6.97628 32.8938 6.82822 32.8938 6.67787C32.8938 6.52752 32.8328 6.37946 32.7259 6.27337C32.6198 6.16652 32.4718 6.10547 32.3214 6.10547C32.1711 6.10547 32.023 6.16652 31.9169 6.27337C31.8101 6.37946 31.749 6.52752 31.749 6.67787C31.749 6.82822 31.8101 6.97628 31.9169 7.08237C32.023 7.18922 32.1711 7.25027 32.3214 7.25027Z" fill="#1D69E7"/>
<path d="M6.67787 7.25027C6.82822 7.25027 6.97628 7.18922 7.08237 7.08237C7.18922 6.97628 7.25027 6.82822 7.25027 6.67787C7.25027 6.52752 7.18922 6.37946 7.08237 6.27337C6.97628 6.16652 6.82822 6.10547 6.67787 6.10547C6.52676 6.10547 6.37946 6.16652 6.27337 6.27337C6.16652 6.37946 6.10547 6.52752 6.10547 6.67787C6.10547 6.82822 6.16652 6.97628 6.27337 7.08237C6.37946 7.18922 6.52676 7.25027 6.67787 7.25027Z" fill="#1D69E7"/>
<path d="M19.5001 28.0097C19.8163 28.0097 20.0725 27.7535 20.0725 27.4373V25.6056C20.0725 25.2895 19.8163 25.0332 19.5001 25.0332C19.184 25.0332 18.9277 25.2895 18.9277 25.6056V27.4373C18.9277 27.7535 19.184 28.0097 19.5001 28.0097Z" fill="#1D69E7"/>
</svg>
