<svg width="50" height="46" viewBox="0 0 50 46" fill="none" xmlns="http://www.w3.org/2000/svg">
<path d="M30.7307 1.28781C28.8676 1.86133 27.1414 2.8091 25.6584 4.07266C24.1755 5.33622 22.9673 6.88877 22.1084 8.63456C19.632 7.22108 16.7852 6.58333 13.9374 6.80409C11.0896 7.02486 8.37243 8.09395 6.1386 9.87257C3.90477 11.6512 2.25745 14.0572 1.41051 16.7783C0.563559 19.4993 0.556097 22.4098 1.38909 25.1317C5.53216 38.6462 31.4749 45.2046 32.5844 45.4344C32.8555 45.5013 33.1399 45.4933 33.4071 45.4114C33.6743 45.3295 33.9143 45.1767 34.1013 44.9694C34.8472 44.1708 52.6568 24.1993 48.5137 10.6849C47.4066 7.08747 44.9125 4.07771 41.5786 2.31599C38.2448 0.554279 34.3435 0.184506 30.7307 1.28781ZM32.4053 42.2225C27.8563 40.9684 7.57776 34.8085 4.33438 24.2288C3.64349 21.9684 3.69292 19.546 4.47548 17.3126C5.25805 15.0791 6.7331 13.1507 8.68686 11.8069C10.6406 10.463 12.9716 9.77345 15.3419 9.83819C17.7123 9.90293 19.9988 10.7186 21.8702 12.1669C22.0651 12.3175 22.2935 12.4191 22.5362 12.4632C22.779 12.5073 23.0289 12.4925 23.2649 12.4201C23.5009 12.3478 23.7162 12.2199 23.8925 12.0474C24.0688 11.8749 24.201 11.6627 24.278 11.4288C25.0141 9.1776 26.4501 7.21744 28.3777 5.83288C30.3053 4.44832 32.624 3.71141 34.9974 3.72914C37.3707 3.74687 39.6751 4.51831 41.576 5.93147C43.4769 7.34463 44.8754 9.32596 45.5684 11.5878C48.8096 22.1602 35.4676 38.627 32.4053 42.2225Z" fill="white"/>
</svg>
