<svg width="35" height="37" viewBox="0 0 35 37" fill="none" xmlns="http://www.w3.org/2000/svg">
<path d="M32.3136 30.9824C31.8734 31.1167 31.4067 31.1398 30.9542 31.0496L22.5549 29.4017C22.4896 29.3884 22.4223 29.3916 22.3587 29.4109C22.2952 29.4302 22.2375 29.4651 22.1907 29.5125L16.1342 35.5593C15.759 35.9343 15.2866 36.1949 14.7706 36.3116C14.2546 36.4284 13.7156 36.3967 13.2145 36.22C12.7134 36.0434 12.2702 35.7288 11.9351 35.3121C11.6 34.8953 11.3864 34.3928 11.3184 33.8616L10.2185 25.292C10.2097 25.225 10.1847 25.161 10.1458 25.1057C10.1069 25.0504 10.0552 25.0055 9.99533 24.975L2.39544 20.978C1.92377 20.7305 1.5292 20.3549 1.25645 19.8938C0.983688 19.4327 0.843644 18.9045 0.85218 18.3691C0.860716 17.8337 1.01749 17.3124 1.30474 16.8644C1.59199 16.4164 1.99823 16.0596 2.47744 15.8343L10.1912 12.1897C10.2512 12.1613 10.3034 12.1185 10.3432 12.0651C10.383 12.0116 10.4092 11.949 10.4196 11.8828L11.7729 3.36745C11.8566 2.83962 12.085 2.34707 12.4324 1.94556C12.7797 1.54405 13.232 1.24962 13.7381 1.09562C14.2441 0.941623 14.7838 0.934202 15.2959 1.0742C15.808 1.2142 16.272 1.49602 16.6356 1.88775L22.5042 8.2029C22.55 8.25186 22.6066 8.28903 22.6694 8.31125C22.7322 8.33347 22.7993 8.34009 22.8649 8.33054L31.3086 7.05977C31.832 6.98043 32.3679 7.05085 32.8557 7.26305C33.3436 7.47525 33.7639 7.82076 34.0691 8.26051C34.3743 8.70025 34.5522 9.21667 34.5828 9.75134C34.6133 10.286 34.4952 10.8176 34.2419 11.286L30.1496 18.8369C30.1171 18.8958 30.0993 18.9618 30.0978 19.0293C30.0963 19.0969 30.1111 19.1639 30.1409 19.2246L34.0009 26.9543C34.1871 27.3278 34.2908 27.7374 34.3048 28.1543C34.3187 28.5713 34.2427 28.9857 34.0818 29.3687C33.921 29.7517 33.6792 30.094 33.3734 30.372C33.0676 30.6499 32.705 30.8568 32.311 30.9781L32.3136 30.9824ZM21.6437 27.0612C22.0835 26.9272 22.5498 26.9043 23.002 26.9943L31.3997 28.6415C31.475 28.659 31.5535 28.6537 31.6254 28.6261C31.6973 28.5985 31.7594 28.5499 31.8037 28.4865C31.8516 28.4258 31.8807 28.3521 31.8875 28.2745C31.8944 28.197 31.8785 28.1189 31.8419 28.0501L27.9805 20.3196C27.7732 19.9034 27.6685 19.4433 27.6755 18.9787C27.6824 18.5142 27.8008 18.0591 28.0203 17.6525L32.1122 10.1003C32.1487 10.0326 32.1656 9.95587 32.1611 9.8787C32.1566 9.80152 32.1309 9.727 32.0868 9.66355C32.0427 9.60009 31.982 9.55023 31.9116 9.51959C31.8412 9.48895 31.7639 9.47875 31.6883 9.49014L23.2454 10.7594C22.791 10.828 22.326 10.7836 21.8908 10.6301C21.4555 10.4766 21.063 10.2186 20.7472 9.87833L14.8736 3.56343C14.821 3.50692 14.7539 3.46629 14.6799 3.44612C14.6059 3.42595 14.528 3.42706 14.4549 3.4493C14.3818 3.47154 14.3165 3.51404 14.2663 3.572C14.2161 3.62996 14.183 3.70106 14.1708 3.77728L12.8164 12.2891C12.7436 12.7477 12.5612 13.1808 12.2851 13.5508C12.0089 13.9208 11.6472 14.2166 11.2313 14.4127L3.51434 18.0634C3.44502 18.0958 3.38626 18.1473 3.34472 18.2121C3.30319 18.2768 3.28056 18.3522 3.27941 18.4295C3.27827 18.5069 3.29865 18.5832 3.33823 18.6498C3.37782 18.7163 3.43502 18.7704 3.50333 18.8059L11.1071 22.7991C11.516 23.0145 11.8678 23.3266 12.1323 23.7085C12.3968 24.0904 12.5662 24.5308 12.6259 24.9919L13.725 33.563C13.7347 33.6401 13.7656 33.713 13.8142 33.7734C13.8629 33.8338 13.9272 33.8793 13.9999 33.9048C14.0726 33.9303 14.1508 33.9347 14.2255 33.9175C14.3003 33.9003 14.3686 33.8622 14.4228 33.8075L20.4781 27.7611C20.804 27.4352 21.2041 27.195 21.6437 27.0612Z" fill="white"/>
</svg>
