<svg width="87" height="67" viewBox="0 0 87 67" fill="none" xmlns="http://www.w3.org/2000/svg">
<path d="M17.4918 21.4831C17.4918 20.4609 18.3139 19.6323 19.3281 19.6323C20.3423 19.6323 21.1645 20.4609 21.1645 21.4831C21.1645 22.5053 20.3423 23.3339 19.3281 23.3339C18.3139 23.3341 17.4918 22.5053 17.4918 21.4831ZM19.3281 41.9012C20.3423 41.9012 21.1645 41.0726 21.1645 40.0504C21.1645 39.0283 20.3423 38.1997 19.3281 38.1997C18.3139 38.1997 17.4918 39.0283 17.4918 40.0504C17.4918 41.0726 18.3139 41.9012 19.3281 41.9012ZM43.5 23.3341C44.5142 23.3341 45.3363 22.5055 45.3363 21.4833C45.3363 20.4611 44.5142 19.6325 43.5 19.6325C42.4858 19.6325 41.6637 20.4611 41.6637 21.4833C41.6637 22.5053 42.4858 23.3341 43.5 23.3341ZM43.5 41.9012C44.5142 41.9012 45.3363 41.0726 45.3363 40.0504C45.3363 39.0283 44.5142 38.1997 43.5 38.1997C42.4858 38.1997 41.6637 39.0283 41.6637 40.0504C41.6637 41.0726 42.4858 41.9012 43.5 41.9012ZM67.6719 23.3341C68.6861 23.3341 69.5082 22.5055 69.5082 21.4833C69.5082 20.4611 68.6861 19.6325 67.6719 19.6325C66.6577 19.6325 65.8355 20.4611 65.8355 21.4833C65.8353 22.5053 66.6574 23.3341 67.6719 23.3341ZM67.6719 41.9012C68.6861 41.9012 69.5082 41.0726 69.5082 40.0504C69.5082 39.0283 68.6861 38.1997 67.6719 38.1997C66.6577 38.1997 65.8355 39.0283 65.8355 40.0504C65.8353 41.0726 66.6574 41.9012 67.6719 41.9012ZM87 56.7116V59.2746C87 63.5343 83.5644 67 79.3414 67H7.67775C3.44411 67 0 63.5343 0 59.2746V56.7116C0 52.0428 4.62166 48.0192 6.89062 48.0192C7.41022 48.0192 8.04902 48.2259 8.75046 48.6192V45.6828H7.26907C5.03339 45.6828 3.21443 43.8496 3.21443 41.5963V38.5037C3.21443 36.2504 5.03339 34.4174 7.26907 34.4174H8.75046V27.117H7.26907C5.03339 27.117 3.21443 25.2838 3.21443 23.0305V19.9379C3.21443 17.6846 5.03339 15.8513 7.26907 15.8513H8.75046V15.1852C8.75046 13.6345 9.20438 12.1331 10.0631 10.843L16.127 1.71927C16.8449 0.642725 18.0412 0 19.3271 0C20.6164 0 21.8129 0.642725 22.5273 1.71949L28.5945 10.8433C29.451 12.1298 29.9039 13.6312 29.9039 15.1852V15.8513H32.923V15.1852C32.923 13.6312 33.3758 12.1298 34.2325 10.843L40.2997 1.71927C40.6497 1.19207 41.1292 0.754742 41.6865 0.454423C42.245 0.156954 42.8719 0 43.4998 0C44.7854 0 45.9819 0.642726 46.6996 1.71905L52.767 10.8433C53.6235 12.1296 54.0764 13.631 54.0764 15.1852V15.8513H57.0955V15.1852C57.0955 13.631 57.5483 12.1296 58.4048 10.843L64.472 1.71927C65.1865 0.642725 66.3827 0 67.6721 0C68.9577 0 70.1542 0.642726 70.8719 1.71905L76.9361 10.8433C77.795 12.1329 78.2489 13.6345 78.2489 15.1852V15.8513H79.7301C81.9658 15.8513 83.7847 17.6846 83.7847 19.9379V23.0305C83.7847 25.2838 81.9658 27.117 79.7301 27.117H78.2489V34.4174H79.7301C81.9658 34.4174 83.7847 36.2504 83.7847 38.5037V41.5963C83.7847 43.8496 81.9658 45.6828 79.7301 45.6828H78.2489V48.6045C78.9373 48.2209 79.5759 48.0192 80.1085 48.0192C82.3783 48.0192 87 52.0428 87 56.7116ZM5.19999 41.5963C5.19999 42.7463 6.12828 43.6817 7.26907 43.6817H8.75046V36.4181H7.26907C6.12828 36.4181 5.19999 37.3535 5.19999 38.5035V41.5963ZM5.19999 23.0305C5.19999 24.1803 6.12828 25.1158 7.26907 25.1158H8.75046V17.8523H7.26907C6.12828 17.8523 5.19999 18.7879 5.19999 19.9376V23.0305ZM27.9185 15.1852C27.9185 14.0323 27.5825 12.9159 26.9463 11.956L20.8793 2.83549C20.5274 2.30522 19.9617 2.00095 19.3273 2.00095C18.6948 2.00095 18.1304 2.305 17.7787 2.83527L11.7113 11.956C11.0731 12.919 10.7358 14.0356 10.7358 15.1849V50.1309C11.2715 50.6532 11.7511 51.221 12.1639 51.8214C13.4267 50.6611 14.7963 49.9467 15.7698 49.9467C16.8288 49.9467 18.3459 50.7913 19.6731 52.111C21.1308 50.0824 23.3545 48.5155 24.8024 48.5155C25.6409 48.5155 26.7884 49.055 27.9183 49.9713L27.9185 15.1852ZM11.8588 54.4427C11.5284 54.4022 11.2421 54.2007 11.0918 53.9032C9.87276 51.4871 7.57552 50.0202 6.89083 50.0202C5.86554 50.0202 1.98556 52.8668 1.98556 56.7116V59.2746C1.98556 62.431 4.53922 64.9988 7.67797 64.9988H79.3416C82.4699 64.9988 85.0147 62.431 85.0147 59.2746V56.7116C85.0147 52.8668 81.1347 50.0202 80.1094 50.0202C79.5724 50.0202 77.8195 51.0318 76.523 52.8861C76.272 53.245 75.8261 53.3964 75.4112 53.2634C75.19 53.1928 74.9992 53.0453 74.8744 52.8477C73.624 51.3006 72.1554 50.5167 71.6876 50.5167C71.0172 50.5167 68.9556 51.8534 67.7328 53.9495C67.5672 54.2334 67.2738 54.4171 66.9478 54.4405C66.6274 54.4671 66.3083 54.3276 66.1017 54.0677C64.8246 52.4589 63.3225 51.6515 62.8401 51.6515C62.2679 51.6515 60.4463 52.7171 59.1487 54.67C58.9438 54.9783 58.5902 55.1473 58.2217 55.1082C57.8541 55.0699 57.5405 54.8316 57.403 54.4863C56.3308 51.8001 53.7114 50.0202 52.9378 50.0202C52.2278 50.0202 50.0955 51.4334 48.881 53.6492C48.7183 53.9462 48.4203 54.1385 48.0845 54.1635C47.7532 54.1898 47.4281 54.0442 47.2219 53.7719C45.943 52.0792 44.3411 51.1936 43.841 51.1936C43.316 51.1936 41.3992 52.2642 40.0687 54.3401C39.8815 54.6326 39.5665 54.7968 39.2179 54.7979C38.8727 54.7919 38.5606 54.61 38.3829 54.3114C37.1538 52.2425 35.1132 50.9229 34.4561 50.9229C33.9026 50.9229 31.9203 52.0382 30.592 54.2012C30.4041 54.5067 30.0689 54.6907 29.7207 54.6749C29.3714 54.6659 29.048 54.4675 28.8786 54.1573C27.6632 51.9345 25.5188 50.5167 24.8028 50.5167C24.1516 50.5167 21.9218 51.9227 20.6879 54.2382C20.5294 54.5359 20.2349 54.7316 19.9006 54.7617C19.5667 54.7937 19.2427 54.651 19.0343 54.3853C17.7617 52.7625 16.2557 51.9481 15.7703 51.9481C15.2796 51.9481 13.9143 52.7153 12.7292 54.1023C12.5143 54.3535 12.1885 54.4809 11.8588 54.4427ZM41.9477 2.83593L35.884 11.9562C35.2461 12.9141 34.9087 14.0308 34.9087 15.1852V48.9668C36.2316 49.2095 37.9424 50.4382 39.2611 52.0941C40.7153 50.3777 42.5776 49.1926 43.8408 49.1926C44.9566 49.1926 46.5335 50.0945 47.8968 51.5036C49.0665 49.9182 50.7182 48.6054 52.0913 48.1705V15.1852C52.0913 14.031 51.7539 12.9144 51.116 11.9562L45.0519 2.83549C44.6971 2.30522 44.1314 2.00095 43.5 2.00095C42.8686 2.00095 42.3027 2.30544 41.9477 2.83593ZM76.264 15.1852C76.264 14.0308 75.9266 12.9141 75.2885 11.9562L69.2213 2.83549C68.8696 2.30522 68.3052 2.00095 67.6727 2.00095C67.0381 2.00095 66.4726 2.305 66.1211 2.83527L60.0537 11.956C59.4175 12.9159 59.0815 14.0323 59.0815 15.1849V51.6704C60.3854 50.4167 61.8018 49.6506 62.8403 49.6506C63.9035 49.6506 65.4303 50.5009 66.7677 51.8295C68.2508 49.9002 70.2973 48.5157 71.6873 48.5157C72.7694 48.5157 74.3182 49.3897 75.6683 50.7543C75.8546 50.5417 76.0545 50.3308 76.264 50.1249V15.1852ZM32.9232 45.6828H29.9041V51.7773C30.8121 50.714 31.9144 49.8198 32.9232 49.3334V45.6828ZM57.0959 45.6828H54.0768V48.2676C55.0445 48.647 56.1441 49.4438 57.0959 50.4498V45.6828ZM57.0959 43.6817V36.4181H54.0768V43.6817H57.0959ZM57.0959 34.4172V27.1168H54.0768V34.4172H57.0959ZM57.0959 25.1158V17.8523H54.0768V25.1158H57.0959ZM32.9232 43.6817V36.4181H29.9041V43.6817H32.9232ZM32.9232 34.4172V27.1168H29.9041V34.4172H32.9232ZM32.9232 25.1158V17.8523H29.9041V25.1158H32.9232ZM81.8 38.5035C81.8 37.3535 80.8719 36.4181 79.7309 36.4181H78.2498V43.6817H79.7309C80.8719 43.6817 81.8 42.7463 81.8 41.5963V38.5035ZM81.8 19.9379C81.8 18.7881 80.8719 17.8525 79.7309 17.8525H78.2498V25.1161H79.7309C80.8719 25.1161 81.8 24.1805 81.8 23.0307V19.9379Z" fill="#1D69E7"/>
</svg>
